mtllib materials.mtl
v 0.2843333 0.005666971 -0.03500009
v 0.2843333 0.0756669 -0.03500009
v 0.2743334 0.0756669 -0.03500009
v 0.2743333 0.005666971 -0.03500009
v 0.2843333 0.005666971 0.03499985
v 0.2743333 0.005666971 0.03499985
v 0.2743333 0.0756669 0.03499985
v 0.2843333 0.0756669 0.03499985
v 0.1643333 0.005666971 -0.03500009
v 0.2743333 0.005666971 -0.03499997
v 0.2743333 0.0756669 -0.03499997
v 0.1643333 0.0756669 -0.03500009
v 0.1643333 0.005666971 0.03499997
v 0.1643333 0.07566702 0.03499997
v 0.2743333 0.0756669 0.03500009
v 0.2743333 0.005666971 0.03500009
v 0.2843334 0.005666971 -0.03500009
v 0.1643333 0.005666852 -0.03500009
v 0.1643334 -0.0043329 -0.03500009
v 0.2843333 -0.004333019 -0.03500009
v 0.2843333 0.005666971 0.03499985
v 0.2843333 -0.004333019 0.03499985
v 0.1643334 -0.004333019 0.03499985
v 0.1643334 0.005666852 0.03499997
v 0.2843333 -0.07433319 -0.03500009
v 0.2843333 -0.004333258 -0.03500009
v 0.2743334 -0.004333258 -0.03500009
v 0.2743333 -0.07433319 -0.03500009
v 0.2843333 -0.07433319 0.03499985
v 0.2743333 -0.07433319 0.03499985
v 0.2743333 -0.004333258 0.03499985
v 0.2843333 -0.004333258 0.03499985
v 0.2743332 -0.07433319 -0.03500009
v 0.2743333 -0.004333019 -0.03499997
v 0.1643333 -0.0043329 -0.03500009
v 0.1643333 -0.004333019 0.03499985
v 0.2743332 -0.004333019 0.03499985
v 0.2743333 -0.07433307 0.03499997
v 0.1643333 -0.07433319 0.03499997
v 0.1643333 -0.07433331 -0.03499997
v -0.09566659 -0.07433319 -0.03499997
v 0.1643334 -0.07433319 -0.03499997
v 0.1643334 -0.004333258 -0.03499997
v -0.09566659 -0.004333258 -0.03499997
v -0.09566659 -0.07433319 0.03499997
v -0.09566659 -0.004333258 0.03499997
v 0.1643334 -0.004333258 0.03499997
v 0.1643334 -0.07433319 0.03499997
v 0.1643335 0.005666852 -0.03499997
v 0.1643335 0.07566679 -0.03499997
v 0.1543335 0.07566679 -0.03499997
v 0.1543334 0.005666852 -0.03499997
v 0.1643334 0.005666852 0.03499997
v 0.1543334 0.005666852 0.03499997
v 0.1543334 0.07566679 0.03499997
v 0.1643334 0.07566679 0.03499997
v 0.1743333 0.005666852 -0.03499997
v -0.09566671 0.005666852 -0.03499997
v -0.09566671 -0.004333138 -0.03499997
v 0.1743333 -0.004333258 -0.03499997
v 0.1743333 0.005666733 0.03500009
v 0.1743333 -0.004333258 0.03499997
v -0.09566671 -0.004333258 0.03499997
v -0.09566671 0.005666852 0.03499997
v 0.1543333 0.005666971 -0.03499997
v 0.1543333 0.0756669 -0.03499997
v -0.09566671 0.0756669 -0.03499997
v -0.09566671 0.07566702 0.03499997
v 0.1543333 0.0756669 0.03499997
v 0.1543333 0.005666971 0.03499997
v -0.09566671 0.005666852 0.03499997
v -0.09566671 0.005666852 -0.03499997
v -0.3056667 0.005666733 -0.03499997
v -0.3056667 0.07566667 -0.03499997
v -0.3156666 0.07566667 -0.03499997
v -0.3156667 0.005666733 -0.03499997
v -0.3056667 0.005666733 0.03499997
v -0.3156667 0.005666733 0.03499997
v -0.3156667 0.07566667 0.03499997
v -0.3056667 0.07566667 0.03499997
v -0.3056666 0.005666852 -0.03499997
v -0.1056666 0.005666733 -0.03500009
v -0.1056666 0.07566667 -0.03500009
v -0.3056666 0.07566679 -0.03499997
v -0.3056666 0.005666852 0.03499997
v -0.3056666 0.07566679 0.03499997
v -0.1056666 0.07566667 0.03499985
v -0.1056666 0.005666733 0.03499985
v -0.09566659 0.005666852 -0.03500021
v -0.09566659 0.07566679 -0.03500021
v -0.1056665 0.07566679 -0.03500021
v -0.1056666 0.005666852 -0.03500021
v -0.09566659 0.005666852 0.03499973
v -0.1056666 0.005666852 0.03499973
v -0.1056666 0.07566679 0.03499973
v -0.09566659 0.07566679 0.03499973
v -0.09566671 0.005666733 -0.03500009
v -0.3156667 0.005666852 -0.03499997
v -0.3156666 -0.004333377 -0.03499997
v -0.09566671 -0.004333377 -0.03500009
v -0.09566671 0.005666614 0.03499997
v -0.09566671 -0.004333377 0.03499985
v -0.3156667 -0.004333377 0.03499997
v -0.3156667 0.005666852 0.03499997
v -0.09566671 -0.07433343 -0.03500009
v -0.09566671 -0.004333496 -0.03500009
v -0.3056667 -0.004333496 -0.03500009
v -0.3056667 -0.004333377 0.03499985
v -0.09566671 -0.004333496 0.03499985
v -0.09566671 -0.07433343 0.03499985
v -0.3056667 -0.07433343 0.03499985
v -0.3056667 -0.07433343 -0.03500009
v -0.3056666 -0.07433331 -0.03499997
v -0.3056666 -0.004333377 -0.03499997
v -0.3156665 -0.004333377 -0.03499997
v -0.3156666 -0.07433331 -0.03499997
v -0.3056666 -0.07433331 0.03499997
v -0.3156666 -0.07433331 0.03499997
v -0.3156666 -0.004333377 0.03499997
v -0.3056666 -0.004333377 0.03499997
vn -1.490116E-06 1.788146E-07 -1
vn -3.672069E-06 -1.788141E-07 1
vn 1 1.208819E-07 2.980233E-07
vn -1 2.600064E-08 -3.193087E-08
vn -3.173939E-06 -1 -2.222541E-07
vn -2.786521E-06 1 2.139379E-07
vn -1 8.432853E-07 -8.834262E-07
vn 1.008538E-06 8.09531E-08 -1
vn -5.344099E-07 -6.764867E-08 1
vn -2.451067E-07 -1 6.421478E-09
vn 2.54009E-07 1 -7.514793E-07
vn -1 -1.022169E-06 9.583106E-07
vn 1 1.101906E-08 2.323364E-07
vn -1 6.808213E-07 -7.769895E-07
vn -3.980854E-07 -1 -2.064517E-07
vn -1.266599E-07 6.396035E-08 -1
vn 6.233697E-07 -5.884773E-06 1
vn -1.165907E-06 1 2.2424E-07
vn 1.710763E-07 -1 -1.710215E-07
vn 1 -5.785626E-06 1.858622E-07
vn -1 -1.748481E-07 -7.285811E-08
vn -8.323148E-07 -1 -1.874013E-06
vn -1 -6.135459E-06 6.880897E-07
vn 1 -1.174609E-05 1.028309E-06
vn -1.609325E-06 1.788141E-07 -1
vn -3.55286E-06 -1.788149E-07 1
vn 1 3.593005E-07 2.980232E-07
vn -1 -2.124179E-07 -3.193085E-08
vn -3.054729E-06 -1 -1.030448E-07
vn -2.90573E-06 1 9.472861E-08
vn -1 6.048667E-07 -8.834263E-07
vn 9.916066E-07 1.840249E-06 -1
vn 9.211632E-08 1.55489E-06 1
vn 1.23168E-06 -1 1.543373E-06
vn -1.280289E-07 1 1.862606E-06
vn -1 6.917302E-07 1.064427E-07
vn 1 -6.385094E-07 -8.149987E-07
vn -1 6.917277E-07 3.041618E-08
vn 1.248032E-06 -1 1.543377E-06
vn -1.141969E-06 -1.477473E-06 -1
vn 5.824811E-08 1.529438E-06 1
vn 1 1.064477E-06 7.131291E-07
vn 9.194089E-07 1 1.596158E-07
vn 5.960464E-08 2.100849E-09 -1
vn -5.960464E-08 -2.100849E-09 1
vn 7.482609E-10 -1 -1.651076E-08
vn -7.482609E-10 1 1.651076E-08
vn -1 -2.979483E-10 -1.131272E-07
vn 1 2.979483E-10 1.131272E-07
vn -1.490116E-06 1.788146E-07 -1
vn -3.672069E-06 -1.788141E-07 1
vn 1 1.208819E-07 2.980233E-07
vn -1 2.600064E-08 -3.193087E-08
vn -3.173939E-06 -1 -2.222541E-07
vn -2.786521E-06 1 2.139379E-07
vn -1 8.432853E-07 -8.834262E-07
vn -1.542549E-07 -5.413935E-07 -1
vn 2.483618E-09 -2.018008E-06 1
vn 1.420603E-07 1 3.306771E-07
vn 1.618367E-07 -1 -1.710215E-07
vn 1 -3.177908E-06 3.737919E-07
vn -1 -1.748457E-07 -2.874213E-08
vn -2.722882E-07 -1 -1.874013E-06
vn -1 -1.748454E-07 -6.865174E-07
vn -1.341105E-07 -3.618844E-08 -1
vn -1.341105E-07 4.044601E-08 1
vn 4.59935E-07 -1 -6.790121E-15
vn 2.081912E-08 1 -7.716677E-07
vn -1 -5.321829E-07 4.744307E-08
vn 1 -3.255163E-14 1.131272E-07
vn -1 -5.321838E-07 -5.899381E-08
vn -8.940706E-08 1.426253E-07 -1
vn 3.915606E-07 -1 -1.596555E-07
vn -1.788139E-07 -2.533192E-07 1
vn -1.490116E-06 1.788146E-07 -1
vn -3.672069E-06 -1.788141E-07 1
vn 1 1.208819E-07 2.980233E-07
vn -1 2.600064E-08 -3.193087E-08
vn -3.173939E-06 -1 -2.222541E-07
vn -2.786521E-06 1 2.139379E-07
vn -1 8.432853E-07 -8.834262E-07
vn -6.780025E-07 1.02664E-07 -1
vn 3.427265E-07 -9.601111E-08 1
vn -6.861912E-07 -1 3.139217E-10
vn 3.61132E-07 1 7.951376E-08
vn -1 -2.130416E-07 -2.557504E-07
vn 1 1.676992E-10 2.323364E-07
vn -1 -1.67654E-10 -4.458165E-07
vn -7.104576E-07 -1 -1.593416E-07
vn -1.490116E-06 1.788146E-07 -1
vn -3.672069E-06 -1.788141E-07 1
vn 1 1.208819E-07 2.980233E-07
vn -1 2.600064E-08 -3.193087E-08
vn -3.173939E-06 -1 -2.222541E-07
vn -2.786521E-06 1 2.139379E-07
vn -1 8.432853E-07 -8.834262E-07
vn -7.023872E-07 -5.978218E-07 -1
vn 5.161216E-07 -1.891314E-06 1
vn 7.595738E-07 1 3.306773E-07
vn 1.588802E-07 -1 -1.710215E-07
vn 1 -3.177908E-06 3.737919E-07
vn -1 -1.664928E-06 -1.234142E-06
vn 1.703701E-07 -1 -1.710215E-07
vn -1 -7.625256E-06 -1.463342E-07
vn -1.710086E-07 -5.879293E-09 -1
vn -1.48302E-07 4.25747E-09 1
vn -7.334009E-08 -1 -3.540372E-14
vn 6.02636E-08 1 -7.716677E-07
vn -1 -1.064368E-07 4.470385E-08
vn 1 -3.255163E-14 1.131272E-07
vn -1 -1.064369E-07 1.283331E-07
vn -1.000506E-07 1.959453E-07 -1
vn -1.16726E-07 -1 -1.596555E-07
vn -2.1926E-07 -1.943232E-07 1
vn -1.490116E-06 1.788146E-07 -1
vn -3.672069E-06 -1.788141E-07 1
vn 1 1.208819E-07 2.980233E-07
vn -1 2.600064E-08 -3.193087E-08
vn -3.173939E-06 -1 -2.222541E-07
vn -2.786521E-06 1 2.139379E-07
vn -1 8.432853E-07 -8.834262E-07
vt -0.1873824 0.01431094
vt -0.1936434 0.01744143
vt -0.1940906 0.01654701
vt -0.1878297 0.01341651
vt 0.1873827 0.01431061
vt 0.1878299 0.01341618
vt 0.1940909 0.01654667
vt 0.1936437 0.0174411
vt 0.01365925 0.2040728
vt 0.01935538 0.2000041
vt 0.02342405 0.2057002
vt 0.01772792 0.2097689
vt -0.01365913 0.2040728
vt -0.02342392 0.2057002
vt -0.01935526 0.2000041
vt -0.1251174 -0.03070794
vt -0.1254537 -0.03164969
vt -0.1188615 -0.03400404
vt -0.1185252 -0.0330623
vt 0.125117 -0.03070707
vt 0.1185248 -0.03306142
vt 0.1188612 -0.03400316
vt 0.1254533 -0.03164881
vt -0.01365921 0.2040727
vt -0.01772788 0.2097688
vt -0.023424 0.2057002
vt -0.1927491 0.003577647
vt -0.1878298 0.01341635
vt -0.1940908 0.01654684
vt -0.1990101 0.006708145
vt 0.1927491 0.003577691
vt 0.1990101 0.006708184
vt 0.1940908 0.01654688
vt 0.1878298 0.01341639
vt -0.122561 -0.04436281
vt -0.1188613 -0.03400365
vt -0.1254535 -0.0316493
vt 0.129153 -0.04200854
vt 0.1254533 -0.03164939
vt 0.1188612 -0.03400374
vt 0.1225609 -0.0443629
vt -0.01365905 0.2040729
vt -0.02342386 0.2057004
vt -0.01935519 0.2000042
vt 0.01365922 0.2040728
vt 0.01935535 0.2000041
vt 0.02342402 0.2057002
vt 0.01772788 0.2097689
vt -0.01365922 0.2040727
vt -0.01772789 0.2097688
vt -0.02342403 0.2057002
vt -0.1254535 -0.03164929
vt -0.1291532 -0.04200845
vt -0.122561 -0.0443628
vt -0.1873825 0.01431086
vt -0.1927491 0.003577725
vt -0.1918547 0.003130528
vt -0.1864881 0.01386364
vt 0.187382 0.01431032
vt 0.1864876 0.0138631
vt 0.1918541 0.003129978
vt 0.1927485 0.003577185
vt 0.1251171 -0.03070731
vt 0.1185249 -0.03306166
vt 0.1225609 -0.04436257
vt 0.1291531 -0.04200822
vt -0.1251172 -0.03070747
vt -0.122561 -0.04436272
vt -0.118525 -0.03306182
vt 0.0130766 0.2032588
vt 0.01877275 0.1991901
vt 0.01935399 0.2000039
vt -0.01935532 0.2000041
vt -0.01877408 0.1991904
vt -0.01307796 0.2032591
vt -0.1251175 -0.03070742
vt -0.1291536 -0.04200831
vt -0.1225614 -0.04436266
vt -0.01307914 0.2032594
vt -0.01366037 0.2040731
vt -0.01935648 0.2000045
vt 0.01935287 0.2000036
vt 0.0136567 0.2040722
vt 0.01307547 0.2032585
vt -0.180227 0.01073324
vt -0.186488 0.01386373
vt -0.1869352 0.0129693
vt -0.1806742 0.009838809
vt 0.1802272 0.0107329
vt 0.1806745 0.009838466
vt 0.1869355 0.01296896
vt 0.1864882 0.01386339
vt 0.009009386 0.1975629
vt 0.01470551 0.1934942
vt 0.01877418 0.1991903
vt 0.01307805 0.203259
vt -0.009009274 0.1975629
vt -0.01877407 0.1991904
vt -0.0147054 0.1934942
vt -0.1251173 -0.03070792
vt -0.1254537 -0.03164966
vt -0.1188615 -0.03400402
vt -0.1185252 -0.03306227
vt 0.125117 -0.03070708
vt 0.1185248 -0.03306144
vt 0.1188611 -0.03400318
vt 0.1254533 -0.03164882
vt -0.009009356 0.1975628
vt -0.01307802 0.2032589
vt -0.01877415 0.1991903
vt -0.1806742 0.009838449
vt -0.1869352 0.01296895
vt -0.1918546 0.003130263
vt 0.1918548 0.003130684
vt 0.1869355 0.01296937
vt 0.1806745 0.009838877
vt -0.1225606 -0.04436278
vt -0.1188609 -0.03400361
vt -0.1254531 -0.03164927
vt 0.1291535 -0.04200818
vt 0.1188616 -0.03400338
vt 0.1225613 -0.04436254
vt -0.009009017 0.1975629
vt -0.01877382 0.1991904
vt -0.01470516 0.1934942
vt 0.009008806 0.1975629
vt 0.01470496 0.1934943
vt 0.01307748 0.2032591
vt -0.009009045 0.1975628
vt -0.01307772 0.203259
vt -0.01877385 0.1991903
vt -0.1254531 -0.03164926
vt -0.1291528 -0.04200843
vt -0.1225606 -0.04436278
vt -0.1918548 0.003130751
vt -0.1855938 2.306875E-07
vt -0.1806744 0.00983893
vt 0.1806745 0.009838873
vt 0.1855938 1.687411E-07
vt 0.1918548 0.00313068
vt 0.01470581 0.1934942
vt 0.01877449 0.1991904
vt 0.01307837 0.2032591
vt 0.1291533 -0.04200852
vt 0.1254536 -0.03164937
vt 0.1188614 -0.03400373
vt -0.1972212 -0.02325509
vt -0.1855937 1.549277E-08
vt -0.1918547 0.003130508
vt -0.2034822 -0.0201246
vt 0.1972212 -0.02325509
vt 0.2034822 -0.0201246
vt 0.1918547 0.003130508
vt 0.1855937 1.587253E-08
vt -0.1378979 -0.0664937
vt -0.1313057 -0.06884806
vt -0.122561 -0.04436276
vt -0.1291532 -0.04200841
vt 0.1378979 -0.0664937
vt 0.1291532 -0.04200841
vt 0.122561 -0.04436276
vt 0.1313057 -0.06884806
vt -0.009009257 0.1975629
vt -0.01307792 0.203259
vt -0.01877405 0.1991903
vt -0.01470539 0.1934942
vt 0.009009255 0.1975629
vt 0.01470538 0.1934942
vt 0.01877405 0.1991903
vt 0.01307792 0.203259
vt -0.192749 0.00357782
vt -0.19901 0.006708311
vt -0.1994572 0.005813885
vt -0.1931962 0.002683389
vt 0.1927492 0.003577486
vt 0.1931964 0.00268306
vt 0.1994574 0.005813555
vt 0.1990102 0.006707982
vt 0.01365926 0.2040727
vt 0.01935539 0.2000041
vt 0.02342405 0.2057002
vt 0.01772793 0.2097689
vt -0.01365913 0.2040728
vt -0.02342392 0.2057002
vt -0.01935526 0.2000041
vt -0.1291534 -0.04200884
vt -0.1294897 -0.04295058
vt -0.1228976 -0.04530494
vt -0.1225612 -0.04436319
vt 0.129153 -0.04200796
vt 0.1225608 -0.04436232
vt 0.1228972 -0.04530406
vt 0.1294894 -0.0429497
vt -0.01365921 0.2040727
vt -0.01772788 0.2097688
vt -0.02342401 0.2057001
vt -0.1923019 0.004472219
vt -0.2043767 -0.01967732
vt -0.2034823 -0.02012453
vt -0.1914075 0.004024995
vt 0.1923017 0.004471939
vt 0.1914073 0.004024726
vt 0.203482 -0.02012481
vt 0.2043764 -0.0196776
vt 0.1288169 -0.04106666
vt 0.1222247 -0.04342102
vt 0.1313058 -0.06884804
vt 0.137898 -0.06649369
vt -0.1288169 -0.04106664
vt -0.1313058 -0.06884802
vt -0.1222247 -0.04342099
vt 0.0136585 0.2040726
vt 0.01307726 0.2032588
vt 0.0187734 0.1991902
vt 0.01935464 0.2000039
vt -0.01935532 0.2000041
vt -0.01877407 0.1991903
vt -0.01307795 0.203259
vt -0.1288172 -0.0410665
vt -0.1378983 -0.06649353
vt -0.1313061 -0.06884788
vt -0.01307818 0.203259
vt -0.01365942 0.2040727
vt -0.01935554 0.2000041
vt -0.1931963 0.00268331
vt -0.1994573 0.005813802
vt -0.2106376 -0.01654688
vt 0.2106377 -0.01654689
vt 0.1994573 0.005813788
vt 0.1931963 0.002683295
vt -0.1313057 -0.068848
vt -0.1228973 -0.04530445
vt -0.1294895 -0.0429501
vt 0.1378978 -0.06649381
vt 0.1294894 -0.04295026
vt 0.1228972 -0.04530461
vt 0.1313056 -0.06884816
vt -0.01365925 0.2040728
vt -0.02342405 0.2057003
vt -0.01935537 0.2000041
vt 0.01365917 0.2040728
vt 0.0193553 0.2000041
vt 0.02342396 0.2057002
vt 0.01772784 0.2097689
vt -0.01365929 0.2040728
vt -0.01772796 0.2097689
vt -0.0234241 0.2057002
vt -0.2106376 -0.01654689
vt -0.2043766 -0.01967739
vt -0.1931963 0.002683297
vt -0.1294895 -0.04295009
vt -0.1378979 -0.06649365
vt -0.1313057 -0.06884799
vt 0.1931963 0.002683257
vt 0.2043766 -0.01967743
vt 0.2106376 -0.01654693
vt -0.213768 -0.03846029
vt -0.220029 -0.0353298
vt -0.2204762 -0.03622421
vt -0.2142152 -0.03935471
vt 0.2137683 -0.0384606
vt 0.2142155 -0.03935503
vt 0.2204765 -0.03622453
vt 0.2200293 -0.03533011
vt 0.01365927 0.2040727
vt 0.01935539 0.2000041
vt 0.02342406 0.2057002
vt 0.01772793 0.2097688
vt -0.01365912 0.2040727
vt -0.02342392 0.2057002
vt -0.01935525 0.2000041
vt -0.1449613 -0.08627071
vt -0.1452976 -0.08721246
vt -0.1387054 -0.08956681
vt -0.1383691 -0.08862507
vt 0.1449608 -0.08626986
vt 0.1383686 -0.08862421
vt 0.138705 -0.08956595
vt 0.1452972 -0.08721159
vt -0.01365922 0.2040726
vt -0.01772789 0.2097687
vt -0.02342401 0.2057
vt -0.2137681 -0.03846031
vt -0.2048238 -0.02057177
vt -0.2110848 -0.01744128
vt -0.2200291 -0.03532982
vt 0.2137681 -0.03846034
vt 0.2200291 -0.03532985
vt 0.2110848 -0.0174413
vt 0.2048238 -0.0205718
vt -0.1383688 -0.08862473
vt -0.1316421 -0.06978989
vt -0.1382343 -0.06743553
vt 0.144961 -0.08627032
vt 0.1382343 -0.06743548
vt 0.1316421 -0.06978983
vt 0.1383688 -0.08862467
vt -0.01365928 0.2040728
vt -0.02342407 0.2057002
vt -0.0193554 0.2000041
vt 0.0136592 0.2040727
vt 0.01935533 0.2000041
vt 0.02342399 0.2057002
vt 0.01772786 0.2097689
vt -0.01365929 0.2040727
vt -0.01772796 0.2097688
vt -0.02342409 0.2057002
vt -0.1382343 -0.06743552
vt -0.1449611 -0.08627036
vt -0.1383689 -0.08862472
vt -0.2043765 -0.01967729
vt -0.2106375 -0.0165468
vt -0.2110848 -0.01744122
vt -0.2048238 -0.02057172
vt 0.2043768 -0.01967761
vt 0.204824 -0.02057204
vt 0.211085 -0.01744154
vt 0.2106378 -0.01654712
vt 0.01365925 0.2040728
vt 0.01935538 0.2000041
vt 0.02342404 0.2057002
vt 0.01772792 0.2097689
vt -0.01365911 0.2040728
vt -0.0234239 0.2057002
vt -0.01935524 0.2000041
vt -0.1378982 -0.06649411
vt -0.1382345 -0.06743585
vt -0.1316424 -0.06979021
vt -0.131306 -0.06884848
vt 0.1378978 -0.06649325
vt 0.1313056 -0.0688476
vt 0.1316419 -0.06978934
vt 0.1382341 -0.06743498
vt -0.0136592 0.2040726
vt -0.01772787 0.2097688
vt -0.02342399 0.2057001
vt -0.2043767 -0.01967728
vt -0.2142154 -0.03935468
vt -0.2133209 -0.03980189
vt -0.2034822 -0.0201245
vt 0.2043764 -0.01967756
vt 0.203482 -0.02012477
vt 0.2133207 -0.03980218
vt 0.2142151 -0.03935496
vt 0.1378981 -0.06649377
vt 0.1313058 -0.06884813
vt 0.1387053 -0.08956645
vt 0.1452974 -0.0872121
vt -0.1378979 -0.06649367
vt -0.1387052 -0.08956634
vt -0.1313058 -0.06884802
vt 0.01365844 0.2040725
vt 0.0130772 0.2032588
vt 0.01877334 0.1991901
vt 0.01935458 0.2000038
vt -0.01935616 0.2000041
vt -0.0187749 0.1991904
vt -0.01307879 0.203259
vt -0.1378979 -0.06649366
vt -0.1452973 -0.08721198
vt -0.1387051 -0.08956634
vt -0.01307998 0.2032597
vt -0.01366123 0.2040735
vt -0.01935733 0.2000047
vt -0.1972212 -0.02325509
vt -0.2034822 -0.0201246
vt -0.2128737 -0.03890758
vt 0.2128737 -0.03890759
vt 0.2034822 -0.02012462
vt 0.1972212 -0.02325511
vt -0.1383688 -0.08862466
vt -0.1313057 -0.06884807
vt -0.1378979 -0.06649372
vt 0.1449609 -0.0862704
vt 0.1378978 -0.06649381
vt 0.1313056 -0.06884816
vt 0.1383687 -0.08862475
vt -0.009009217 0.1975629
vt -0.01877402 0.1991903
vt -0.01470535 0.1934942
vt 0.009009233 0.1975629
vt 0.01470536 0.1934942
vt 0.01877403 0.1991903
vt 0.0130779 0.203259
vt -0.009009176 0.1975629
vt -0.01307784 0.203259
vt -0.01877397 0.1991904
vt -0.2128737 -0.03890761
vt -0.2066127 -0.0420381
vt -0.1972212 -0.02325512
vt -0.137898 -0.0664937
vt -0.144961 -0.08627029
vt -0.1383688 -0.08862464
vt 0.1972212 -0.02325514
vt 0.2066127 -0.04203812
vt 0.2128737 -0.03890762
vt -0.2066126 -0.04203799
vt -0.2128736 -0.03890749
vt -0.2133208 -0.03980191
vt -0.2070598 -0.04293241
vt 0.2066129 -0.0420383
vt 0.2070601 -0.04293273
vt 0.2133211 -0.03980223
vt 0.2128739 -0.03890781
vt 0.009009356 0.1975629
vt 0.01470548 0.1934942
vt 0.01877415 0.1991903
vt 0.01307802 0.203259
vt -0.009009215 0.1975629
vt -0.01877401 0.1991903
vt -0.01470534 0.1934942
vt -0.1449612 -0.08627068
vt -0.1452976 -0.08721242
vt -0.1387054 -0.08956678
vt -0.1383691 -0.08862504
vt 0.1449608 -0.08626987
vt 0.1383686 -0.08862422
vt 0.138705 -0.08956596
vt 0.1452972 -0.08721159
vt -0.009009309 0.1975627
vt -0.01307797 0.2032588
vt -0.0187741 0.1991902
o group2098756869
g mesh2098756869
usemtl mat19
f 4/4/1 3/3/1 2/2/1 1/1/1
f 8/8/2 7/7/2 6/6/2 5/5/2
f 2/12/3 8/11/3 5/10/3 1/9/3
f 6/15/4 7/14/4 4/13/4
f 5/19/5 6/18/5 4/17/5 1/16/5
f 3/23/6 7/22/6 8/21/6 2/20/6
f 7/26/7 3/25/7 4/24/7
o group1547201179
g mesh1547201179
usemtl mat20
f 12/30/8 11/29/8 10/28/8 9/27/8
f 16/34/9 15/33/9 14/32/9 13/31/9
f 10/37/10 16/36/10 13/35/10
f 14/41/11 15/40/11 11/39/11 12/38/11
f 13/44/12 14/43/12 9/42/12
f 11/48/13 15/47/13 16/46/13 10/45/13
f 14/51/14 12/50/14 9/49/14
f 13/54/15 9/53/15 10/52/15
o group823642602
g mesh823642602
usemtl mat19
f 20/58/16 19/57/16 18/56/16 17/55/16
f 24/62/17 23/61/17 22/60/17 21/59/17
f 18/66/18 24/65/18 21/64/18 17/63/18
f 22/69/19 23/68/19 20/67/19
f 21/72/20 22/71/20 20/70/20
f 19/75/21 23/74/21 24/73/21
f 23/78/22 19/77/22 20/76/22
f 24/81/23 18/80/23 19/79/23
f 20/84/24 17/83/24 21/82/24
o group1948337926
g mesh1948337926
usemtl mat19
f 28/88/25 27/87/25 26/86/25 25/85/25
f 32/92/26 31/91/26 30/90/26 29/89/26
f 26/96/27 32/95/27 29/94/27 25/93/27
f 30/99/28 31/98/28 28/97/28
f 29/103/29 30/102/29 28/101/29 25/100/29
f 27/107/30 31/106/30 32/105/30 26/104/30
f 31/110/31 27/109/31 28/108/31
o group1138848981
g mesh1138848981
usemtl mat20
f 35/113/32 34/112/32 33/111/32
f 38/116/33 37/115/33 36/114/33
f 33/119/34 38/118/34 39/117/34
f 36/122/35 37/121/35 35/120/35
f 39/125/36 36/124/36 40/123/36
f 34/128/37 38/127/37 33/126/37
f 36/131/38 35/130/38 40/129/38
f 39/134/39 40/133/39 33/132/39
f 33/137/40 40/136/40 35/135/40
f 36/140/41 39/139/41 38/138/41
f 34/143/42 37/142/42 38/141/42
f 37/146/43 34/145/43 35/144/43
o group505231499
g mesh505231499
usemtl mat20
f 44/150/44 43/149/44 42/148/44 41/147/44
f 48/154/45 47/153/45 46/152/45 45/151/45
f 42/158/46 48/157/46 45/156/46 41/155/46
f 46/162/47 47/161/47 43/160/47 44/159/47
f 45/166/48 46/165/48 44/164/48 41/163/48
f 43/170/49 47/169/49 48/168/49 42/167/49
o group2068083127
g mesh2068083127
usemtl mat19
f 52/174/50 51/173/50 50/172/50 49/171/50
f 56/178/51 55/177/51 54/176/51 53/175/51
f 50/182/52 56/181/52 53/180/52 49/179/52
f 54/185/53 55/184/53 52/183/53
f 53/189/54 54/188/54 52/187/54 49/186/54
f 51/193/55 55/192/55 56/191/55 50/190/55
f 55/196/56 51/195/56 52/194/56
o group914515526
g mesh914515526
usemtl mat19
f 60/200/57 59/199/57 58/198/57 57/197/57
f 64/204/58 63/203/58 62/202/58 61/201/58
f 58/208/59 64/207/59 61/206/59 57/205/59
f 62/211/60 63/210/60 60/209/60
f 61/215/61 62/214/61 60/213/61 57/212/61
f 59/218/62 63/217/62 64/216/62
f 63/221/63 59/220/63 60/219/63
f 64/224/64 58/223/64 59/222/64
o group534291549
g mesh534291549
usemtl mat20
f 67/227/65 66/226/65 65/225/65
f 70/230/66 69/229/66 68/228/66
f 65/233/67 70/232/67 71/231/67
f 68/237/68 69/236/68 66/235/68 67/234/68
f 71/240/69 68/239/69 72/238/69
f 66/244/70 69/243/70 70/242/70 65/241/70
f 68/247/71 67/246/71 72/245/71
f 65/250/72 72/249/72 67/248/72
f 71/253/73 72/252/73 65/251/73
f 68/256/74 71/255/74 70/254/74
o group1607612537
g mesh1607612537
usemtl mat19
f 76/260/75 75/259/75 74/258/75 73/257/75
f 80/264/76 79/263/76 78/262/76 77/261/76
f 74/268/77 80/267/77 77/266/77 73/265/77
f 78/271/78 79/270/78 76/269/78
f 77/275/79 78/274/79 76/273/79 73/272/79
f 75/279/80 79/278/80 80/277/80 74/276/80
f 79/282/81 75/281/81 76/280/81
o group830981041
g mesh830981041
usemtl mat20
f 84/286/82 83/285/82 82/284/82 81/283/82
f 88/290/83 87/289/83 86/288/83 85/287/83
f 82/293/84 88/292/84 85/291/84
f 86/297/85 87/296/85 83/295/85 84/294/85
f 85/300/86 86/299/86 81/298/86
f 83/304/87 87/303/87 88/302/87 82/301/87
f 86/307/88 84/306/88 81/305/88
f 85/310/89 81/309/89 82/308/89
o group1060422615
g mesh1060422615
usemtl mat19
f 92/314/90 91/313/90 90/312/90 89/311/90
f 96/318/91 95/317/91 94/316/91 93/315/91
f 90/322/92 96/321/92 93/320/92 89/319/92
f 94/325/93 95/324/93 92/323/93
f 93/329/94 94/328/94 92/327/94 89/326/94
f 91/333/95 95/332/95 96/331/95 90/330/95
f 95/336/96 91/335/96 92/334/96
o group1903197938
g mesh1903197938
usemtl mat19
f 100/340/97 99/339/97 98/338/97 97/337/97
f 104/344/98 103/343/98 102/342/98 101/341/98
f 98/348/99 104/347/99 101/346/99 97/345/99
f 102/351/100 103/350/100 100/349/100
f 101/355/101 102/354/101 100/353/101 97/352/101
f 99/358/102 103/357/102 104/356/102
f 103/361/103 99/360/103 100/359/103
f 104/364/104 98/363/104 99/362/104
o group1699511663
g mesh1699511663
usemtl mat20
f 107/367/105 106/366/105 105/365/105
f 110/370/106 109/369/106 108/368/106
f 105/373/107 110/372/107 111/371/107
f 108/377/108 109/376/108 106/375/108 107/374/108
f 111/380/109 108/379/109 112/378/109
f 106/384/110 109/383/110 110/382/110 105/381/110
f 108/387/111 107/386/111 112/385/111
f 105/390/112 112/389/112 107/388/112
f 111/393/113 112/392/113 105/391/113
f 108/396/114 111/395/114 110/394/114
o group1046170551
g mesh1046170551
usemtl mat19
f 116/400/115 115/399/115 114/398/115 113/397/115
f 120/404/116 119/403/116 118/402/116 117/401/116
f 114/408/117 120/407/117 117/406/117 113/405/117
f 118/411/118 119/410/118 116/409/118
f 117/415/119 118/414/119 116/413/119 113/412/119
f 115/419/120 119/418/120 120/417/120 114/416/120
f 119/422/121 115/421/121 116/420/121
