mtllib materials.mtl
v -0.1263355 0.06431293 -0.4564986
v -0.1263356 0.06431293 -0.01649857
v -0.1263356 -0.06568718 -0.01649857
v -0.1263356 -0.06568718 -0.4564986
v 0.5636644 0.0643127 -0.4564986
v 0.5636644 -0.06568718 -0.4564986
v 0.5636645 -0.06568718 -0.01649857
v 0.5636645 0.06431293 -0.01649857
v -0.7463357 -0.0656867 1.173501
v -0.7463356 -0.0656867 -0.3964988
v -0.7463356 0.06431341 -0.3964988
v -0.7463357 0.06431341 1.173501
v -0.1963358 -0.0656867 1.173501
v -0.1963358 0.06431341 1.173501
v -0.1963356 0.06431341 -0.3964988
v -0.1963356 -0.0656867 -0.3964988
v -0.6163356 0.06431317 -0.3914987
v -0.625044 0.06431317 -0.4239987
v -0.625044 -0.06568694 -0.4239987
v -0.6163356 -0.06568694 -0.3914987
v -0.6488355 0.06431317 -0.4477904
v -0.6488357 -0.06568694 -0.4477904
v -0.6813356 0.06431317 -0.4564987
v -0.6813356 -0.06568694 -0.4564987
v -0.7138356 0.06431317 -0.4477904
v -0.7138356 -0.06568694 -0.4477904
v -0.7376273 0.06431317 -0.4239987
v -0.7376273 -0.06568694 -0.4239987
v -0.7463356 0.06431317 -0.3914987
v -0.7463356 -0.06568694 -0.3914987
v -0.7376273 0.06431317 -0.3589987
v -0.7376273 -0.06568694 -0.3589987
v -0.7138356 0.06431317 -0.335207
v -0.7138356 -0.06568694 -0.335207
v -0.6813356 0.06431317 -0.3264986
v -0.6813356 -0.06568694 -0.3264986
v -0.6488355 0.06431317 -0.335207
v -0.6488357 -0.06568694 -0.335207
v -0.6250439 0.06431317 -0.3589987
v -0.625044 -0.06568694 -0.3589987
v 0.01366436 -0.0656867 -0.4564986
v 0.01366431 -0.0656867 -0.01649857
v 0.01366431 0.06431341 -0.01649857
v 0.01366436 0.06431341 -0.4564986
v -0.6763357 -0.0656867 -0.4564987
v -0.6763357 0.06431341 -0.4564987
v -0.6763358 0.06431341 -0.01649868
v -0.6763358 -0.0656867 -0.01649868
v 0.5036644 -0.06568694 -0.3914986
v 0.5123727 -0.06568694 -0.4239986
v 0.5123727 0.06431317 -0.4239986
v 0.5036644 0.06431317 -0.3914986
v 0.5361644 -0.06568694 -0.4477903
v 0.5361644 0.06431317 -0.4477903
v 0.5686644 -0.06568694 -0.4564986
v 0.5686644 0.06431317 -0.4564986
v 0.6011643 -0.06568694 -0.4477903
v 0.6011644 0.06431317 -0.4477903
v 0.624956 -0.06568694 -0.4239986
v 0.624956 0.06431317 -0.4239986
v 0.6260622 -0.06760406 -0.3892882
v 0.624956 -0.06568694 -0.3589985
v 0.624956 0.06431317 -0.3589985
v 0.6011643 -0.06568694 -0.3352069
v 0.6011643 0.06431317 -0.3352069
v 0.5686643 -0.06568694 -0.3264985
v 0.5686644 0.06431317 -0.3264985
v 0.5361643 -0.06568694 -0.3352069
v 0.5361644 0.06431317 -0.3352069
v 0.5123727 -0.06568694 -0.3589987
v 0.5123727 0.06431317 -0.3589987
v 0.6261436 0.06503177 -0.3961781
v 0.07366404 -0.06568718 1.183501
v 0.07366475 -0.0656867 -0.3864988
v 0.07366472 0.06431317 -0.3864988
v 0.07366422 0.06431293 0.847829
v 0.07366419 0.06431293 0.9331126
v 0.07366407 0.06431293 1.183501
v 0.623664 -0.06568718 1.183501
v 0.623664 0.06431293 1.183501
v 0.6236641 0.06431293 0.9464791
v 0.6236641 0.06431293 0.8498293
v 0.6236647 0.06431317 -0.3864986
v 0.6236647 -0.0656867 -0.3864986
v 0.2971128 0.06431293 0.938543
v 0.3852538 0.06431293 0.9406851
v 0.2942037 0.06431293 0.8486311
v 0.3850005 0.06431293 0.8489613
v 0.3842422 0.009678125 0.8517447
v 0.3812984 0.01390958 0.9433239
v 0.293718 0.004956722 0.938533
v 0.2939575 0.000541687 0.8486828
v 0.3811624 -0.005058527 0.8559418
v 0.2905838 -0.01041079 0.8526179
v 0.3781805 -0.001528263 0.9475495
v 0.2903156 -0.006793737 0.9425038
v 0.2836376 0.009654045 0.981842
v 0.4107806 0.01548123 0.9826807
v 0.4110073 0.01049376 0.9829544
v 0.2838643 0.004666805 0.9821156
v 0.4119361 0.008560896 0.8555951
v 0.4121629 0.003573418 0.8558687
v 0.2847931 0.002733707 0.8547563
v 0.2850199 -0.002253532 0.8550299
vn -1 7.820073E-08 -3.386628E-08
vn 1 9.037505E-08 -1.354651E-07
vn 1.414125E-07 1 -9.506837E-08
vn -5.502894E-08 -1 -5.094924E-08
vn 7.746272E-08 -8.887736E-08 -1
vn 1.295753E-08 -5.440289E-08 1
vn -1 -1.553973E-08 -7.79316E-08
vn 1 1.553973E-08 9.691396E-08
vn 9.35665E-08 -1 -4.155413E-08
vn -9.356648E-08 1 -3.7309E-08
vn -8.292117E-08 7.87086E-16 1
vn 5.807895E-08 -5.130638E-15 -1
vn 0.9659258 -1.67413E-07 -0.2588193
vn 0.7071068 -1.338193E-07 -0.7071069
vn 0.2588189 -4.52947E-08 -0.9659259
vn -0.2588192 5.588679E-08 -0.9659258
vn -0.7071069 1.176726E-07 -0.7071067
vn -0.9659259 1.684144E-07 -0.258819
vn -0.9659258 1.682478E-07 0.2588194
vn -0.7071066 1.326479E-07 0.7071071
vn -0.2588189 7.137461E-08 0.9659259
vn 0.2588192 -4.062602E-08 0.9659259
vn 0.7071069 -1.295609E-07 0.7071068
vn 0.9659259 -1.705359E-07 0.2588188
vn 1.824284E-07 1 -9.039448E-16
vn -1.672627E-07 -1 -9.039448E-16
vn 1 9.222047E-09 1.409793E-07
vn -1 -1.777978E-07 -3.103107E-07
vn -5.398969E-08 -1 -9.506839E-08
vn -3.239382E-08 1 -5.094923E-08
vn 9.738282E-08 8.887736E-08 -1
vn -1.878031E-07 5.440288E-08 1
vn -0.9659257 2.518569E-07 -0.2588195
vn -0.7071066 1.956365E-07 -0.7071069
vn -0.2588189 6.792137E-08 -0.9659259
vn 0.2588192 -7.851349E-08 -0.9659258
vn 0.707107 -1.794899E-07 -0.7071066
vn 0.9994926 -2.61931E-07 -0.03185272
vn 0.9993338 -2.621918E-07 0.0364967
vn 0.7071065 -1.944651E-07 0.7071071
vn 0.258819 -9.400128E-08 0.9659259
vn -0.2588191 6.325271E-08 0.9659258
vn -0.7071069 1.913782E-07 0.7071067
vn -0.965926 2.549798E-07 0.2588186
vn -2.700243E-07 -1 -4.540632E-14
vn -0.001878784 0.9999983 -1.004095E-09
vn 0.9990894 -0.00282491 -0.04257471
vn 0.9994891 0.001045931 0.03194607
vn -0.8661619 -0.4997637 -4.525761E-07
vn -1 2.606006E-08 -4.276227E-07
vn 1 1.615579E-07 4.466051E-07
vn 9.356658E-08 -1 -2.163997E-07
vn -5.901239E-09 1 -3.434344E-07
vn -4.326123E-07 -1.748456E-07 1
vn 4.0777E-07 1.748455E-07 -1
vn -4.607709E-09 1 1.215423E-08
vn -8.691575E-08 1 2.404998E-07
vn -2.909792E-10 1 -1.52203E-08
vn -0.003632381 0.05092857 0.9986957
vn -0.9969199 0.07837811 0.002753594
vn 0.02429637 -0.001220725 -0.9997041
vn 0.9978483 -0.05706507 -0.03228565
vn -0.05865595 0.3146468 0.9473948
vn -0.03398963 0.0009409219 0.9994218
vn 0.9999885 -0.003858007 0.002854988
vn -0.9993911 0.01220629 -0.03268878
vn 0.06033086 -0.05690679 -0.996555
vn -0.9809068 0.1903629 -0.03979574
vn 0.08608612 -0.3412314 -0.936029
vn 0.959563 -0.2810793 0.01527178
vn -0.05746437 0.9975334 -0.04031247
vn 0.07161559 -0.2767582 -0.9582673
vn -0.009078661 0.05437196 0.9984795
vn 0.9989297 0.04578171 0.006589766
vn 0.009078626 -0.0543721 -0.9984795
vn -0.9989298 -0.04578149 -0.006589693
vn -0.04535368 0.9974707 -0.05472928
vn 0.04535368 -0.9974707 0.05472928
vt 0.03673428 0.2892241
vt 0.0009299977 0.2636496
vt 0.0084861 0.2530711
vt 0.04429037 0.2786456
vt -0.0367343 0.2892241
vt -0.04429039 0.2786455
vt -0.008486107 0.253071
vt -0.000930004 0.2636496
vt 0.1958823 0.0402258
vt 0.1726751 0.105206
vt 0.1312384 0.0904072
vt 0.1544456 0.025427
vt -0.1958823 0.04022584
vt -0.1544457 0.02542703
vt -0.1312384 0.09040723
vt -0.1726751 0.105206
vt -0.2039294 0.07065974
vt -0.1923018 0.06484596
vt -0.1614441 0.1265614
vt -0.1730716 0.1323752
vt 0.2039294 0.07065973
vt 0.1730716 0.1323752
vt 0.1614441 0.1265614
vt 0.1923018 0.06484595
vt -0.08834822 0.1839038
vt 0.03940792 0.2751582
vt 0.03185182 0.2857367
vt -0.09590434 0.1944823
vt 0.08834823 0.1839038
vt 0.09590434 0.1944823
vt -0.03185181 0.2857367
vt -0.03940791 0.2751582
vt -0.06323125 -0.07298499
vt -0.04473275 -0.02118919
vt -0.1925862 0.03161565
vt -0.2110848 -0.02018015
vt 0.06323124 -0.07298499
vt 0.2110847 -0.02018017
vt 0.1925862 0.03161563
vt 0.04473273 -0.02118919
vt 0.2200291 0.009391475
vt 0.2316567 0.01520526
vt 0.2070599 0.06439875
vt 0.1954324 0.05858497
vt -0.2200291 0.009391477
vt -0.1954324 0.05858497
vt -0.2070599 0.06439875
vt -0.2316567 0.01520526
vt -0.1655896 0.2456861
vt -0.1689054 0.2462574
vt -0.1711129 0.2334462
vt -0.1677971 0.2328749
vt -0.2865924 0.02866741
vt -0.289082 0.02640404
vt -0.280337 0.01678503
vt -0.2778474 0.0190484
vt -0.2495799 -0.005241315
vt -0.2512514 -0.008161408
vt -0.239969 -0.01461962
vt -0.2382975 -0.01169953
vt -0.2060559 0.06482141
vt -0.2074932 0.06177916
vt -0.1957389 0.0562261
vt -0.1943016 0.05926834
vt -0.1537202 0.1681008
vt -0.1552748 0.1651169
vt -0.1437459 0.15911
vt -0.1421912 0.1620939
vt -0.05955628 0.2636079
vt -0.06170226 0.2610165
vt -0.05168964 0.2527251
vt -0.04954366 0.2553165
vt 0.1689055 0.2462574
vt 0.1655897 0.245686
vt 0.1677972 0.2328748
vt 0.171113 0.2334462
vt 0.289082 0.02640398
vt 0.2865925 0.02866735
vt 0.2778475 0.01904835
vt 0.280337 0.01678498
vt 0.2512514 -0.008161402
vt 0.2495799 -0.005241316
vt 0.2382975 -0.01169952
vt 0.239969 -0.01461961
vt 0.2074932 0.06177916
vt 0.2060559 0.0648214
vt 0.1943016 0.05926833
vt 0.1957389 0.05622609
vt 0.1552749 0.1651169
vt 0.1537202 0.1681008
vt 0.1421912 0.1620939
vt 0.1437459 0.15911
vt 0.06170221 0.2610165
vt 0.05955623 0.2636079
vt 0.04954362 0.2553165
vt 0.0516896 0.2527251
vt 0.2034737 -0.01001893
vt 0.2020334 -0.01305969
vt 0.2023063 -0.01641325
vt 0.2042195 -0.01918101
vt 0.2072603 -0.02062138
vt 0.2106138 -0.02034838
vt 0.2133816 -0.01843519
vt 0.214822 -0.01539443
vt 0.214549 -0.01204087
vt 0.2126358 -0.009273103
vt 0.209595 -0.007832747
vt 0.2062415 -0.008105738
vt -0.2062415 -0.008105734
vt -0.209595 -0.007832741
vt -0.2126358 -0.009273103
vt -0.214549 -0.01204087
vt -0.214822 -0.01539443
vt -0.2133816 -0.01843518
vt -0.2106138 -0.02034838
vt -0.2072603 -0.02062137
vt -0.2042195 -0.01918101
vt -0.2023063 -0.01641325
vt -0.2020334 -0.01305969
vt -0.2034737 -0.01001893
vt -0.04429029 0.2786456
vt -0.008486016 0.2530711
vt -0.0009299112 0.2636496
vt -0.03673418 0.2892241
vt 0.04429015 0.2786456
vt 0.03673404 0.2892241
vt 0.0009297797 0.2636496
vt 0.008485889 0.2530711
vt -0.1911736 0.05341022
vt -0.2143808 -0.01156997
vt -0.1729442 -0.02636879
vt -0.149737 0.03861141
vt 0.1911736 0.05341021
vt 0.1497369 0.0386114
vt 0.1729442 -0.02636879
vt 0.2143808 -0.01156998
vt -0.1860408 0.07736792
vt -0.1976684 0.0831817
vt -0.2285262 0.02146622
vt -0.2168986 0.01565244
vt 0.1860409 0.07736793
vt 0.2168986 0.01565245
vt 0.2285262 0.02146623
vt 0.1976684 0.08318172
vt -0.03105533 0.2776428
vt -0.02890935 0.2802343
vt -0.03892196 0.2885257
vt -0.04106794 0.2859343
vt -0.1029044 0.2374966
vt -0.1013497 0.2404805
vt -0.1128787 0.2464874
vt -0.1144334 0.2435035
vt -0.1441634 0.165397
vt -0.1427262 0.1684392
vt -0.1544805 0.1739923
vt -0.1559177 0.1709501
vt -0.1799869 0.09016807
vt -0.1783154 0.09308816
vt -0.1895977 0.09954637
vt -0.1912692 0.09662628
vt -0.2149365 0.0762432
vt -0.2124469 0.07850657
vt -0.2211919 0.08812558
vt -0.2236815 0.08586221
vt -0.05236083 0.2737997
vt -0.04955388 0.2717459
vt -0.04527431 0.2846983
vt -0.02741157 0.2770804
vt -0.02491097 0.2753569
vt -0.01687241 0.2855737
vt 0.1013497 0.2404805
vt 0.1029044 0.2374966
vt 0.1144334 0.2435035
vt 0.1128787 0.2464874
vt 0.1427262 0.1684392
vt 0.1441634 0.165397
vt 0.1559177 0.1709501
vt 0.1544805 0.1739923
vt 0.1783153 0.09308816
vt 0.1799868 0.09016807
vt 0.1912692 0.09662629
vt 0.1895977 0.09954637
vt 0.2124469 0.07850656
vt 0.2149365 0.07624318
vt 0.2236814 0.0858622
vt 0.2211919 0.08812557
vt 0.1359143 0.2273815
vt 0.1392301 0.2279528
vt 0.1370226 0.240764
vt 0.1337068 0.2401927
vt -0.1652183 0.09709635
vt -0.1621775 0.09853671
vt -0.1602643 0.1013045
vt -0.1599913 0.104658
vt -0.1614317 0.1076988
vt -0.167553 0.109885
vt -0.1705938 0.1084446
vt -0.172507 0.1056769
vt -0.1727799 0.1023233
vt -0.1713396 0.09928254
vt -0.1685718 0.09736934
vt 0.1684656 0.09769798
vt 0.1712339 0.09961035
vt 0.1726752 0.1026507
vt 0.1724032 0.1060043
vt 0.1704908 0.1087727
vt 0.1674505 0.1102139
vt 0.1647903 0.109391
vt 0.1613285 0.1080295
vt 0.1598872 0.1049892
vt 0.1601592 0.1016356
vt 0.1620716 0.09886724
vt 0.1651119 0.09742598
vt -0.05385861 0.2706333
vt -0.04741309 0.2822458
vt -0.04981259 0.2836606
vt -0.01805872 0.2853457
vt -0.02094848 0.2876891
vt -0.02855892 0.2768044
vt -0.182539 0.1574211
vt -0.1828773 0.1604393
vt -0.183732 0.1638107
vt -0.08916202 0.1833224
vt 0.03859406 0.274577
vt 0.03103797 0.2851555
vt -0.06940337 0.2134115
vt -0.07634318 0.2084545
vt -0.09671813 0.193901
vt 0.08916206 0.1833224
vt 0.09671817 0.193901
vt 0.07743087 0.2076776
vt 0.06956616 0.2132953
vt -0.03103791 0.2851555
vt -0.03859401 0.274577
vt -0.03470997 0.003901506
vt -0.01621144 0.05569729
vt -0.1640649 0.1085022
vt -0.1825634 0.0567064
vt 0.03470986 0.003901446
vt 0.05829 0.01232293
vt 0.05026321 0.03318339
vt 0.04709698 0.04141195
vt 0.03853274 0.06366917
vt 0.01621135 0.05569724
vt 0.1833576 0.08273445
vt 0.1949851 0.08854823
vt 0.1703884 0.1377417
vt 0.1587608 0.1319279
vt -0.1833576 0.08273447
vt -0.1587608 0.131928
vt -0.1703884 0.1377417
vt -0.1949851 0.08854823
vt 0.05829008 0.01232297
vt 0.0663216 0.01519137
vt 0.05882851 0.03593352
vt 0.05026328 0.03318342
vt 0.06632163 0.01519141
vt 0.1825634 0.0567064
vt 0.1640649 0.1085022
vt 0.04763475 0.06691992
vt 0.05574362 0.04447316
vt 0.05882854 0.03593355
vt 0.05574358 0.04447313
vt 0.04763471 0.06691989
vt 0.0385328 0.0636692
vt 0.04709705 0.04141198
vt 0.1864405 0.1122046
vt 0.1822617 0.1202656
vt 0.1774394 0.1176814
vt -0.05519887 0.2186146
vt -0.06301454 0.2138137
vt -0.06059217 0.2093681
vt -0.1812899 0.1159012
vt -0.1852643 0.108031
vt -0.1801189 0.1050524
vt 0.05795324 0.2145904
vt 0.05018138 0.2191207
vt 0.05494879 0.20946
vt 0.1804605 0.123659
vt 0.1765002 0.1318294
vt 0.1753434 0.1307795
vt 0.1796317 0.1227764
vt 0.1766825 0.1128202
vt 0.1799514 0.1043493
vt 0.1856286 0.107254
vt 0.06949521 0.2134209
vt 0.06579211 0.2082291
vt 0.07335951 0.2033648
vt -0.07995029 0.2020429
vt -0.07240255 0.2072549
vt -0.07548805 0.2117729
vt -0.1811689 0.1088547
vt -0.1778191 0.1170103
vt -0.182091 0.1197275
vt -0.04672028 0.2143798
vt -0.05484324 0.2101195
vt -0.05442402 0.2085436
vt -0.04633363 0.2128655
vt -0.1726836 0.1322975
vt -0.1766422 0.1244194
vt -0.1757566 0.1234868
vt 0.0369666 0.2084036
vt 0.02870127 0.2119547
vt 0.02855475 0.210752
vt 0.0367892 0.2071298
vt 0.04778443 0.04267657
vt 0.04462427 0.05118863
vt 0.03600508 0.0480513
vt 0.0392438 0.03985099
vt -0.1781266 0.1209796
vt -0.1739676 0.1287537
vt -0.1751875 0.1298358
vt 0.1815152 0.1086476
vt 0.1761591 0.1201937
vt 0.1757055 0.1199833
vt 0.1810617 0.1084372
vt 0.08759112 0.1960242
vt 0.0772411 0.2034321
vt 0.07695009 0.2030255
vt 0.0873001 0.1956176
vt -0.1761591 0.1201937
vt -0.1815152 0.1086476
vt -0.1810617 0.1084372
vt -0.1757055 0.1199833
vt -0.07724102 0.2034321
vt -0.08759104 0.1960242
vt -0.08730003 0.1956176
vt -0.07695001 0.2030255
vt 0.0457718 0.03856135
vt 0.04176106 0.05064083
vt 0.02968157 0.04663009
vt 0.03369232 0.03455061
vt -0.03369232 0.03455061
vt -0.02968157 0.04663009
vt -0.04176106 0.05064083
vt -0.0457718 0.03856135
o group308545719
g mesh308545719
usemtl mat9
f 4/4/1 3/3/1 2/2/1 1/1/1
f 8/8/2 7/7/2 6/6/2 5/5/2
f 2/12/3 8/11/3 5/10/3 1/9/3
f 6/16/4 7/15/4 3/14/4 4/13/4
f 5/20/5 6/19/5 4/18/5 1/17/5
f 3/24/6 7/23/6 8/22/6 2/21/6
o group1414712935
g mesh1414712935
usemtl mat9
f 12/28/7 11/27/7 10/26/7 9/25/7
f 16/32/8 15/31/8 14/30/8 13/29/8
f 10/36/9 16/35/9 13/34/9 9/33/9
f 14/40/10 15/39/10 11/38/10 12/37/10
f 13/44/11 14/43/11 12/42/11 9/41/11
f 11/48/12 15/47/12 16/46/12 10/45/12
o group881132206
g mesh881132206
usemtl mat9
f 20/52/13 19/51/13 18/50/13 17/49/13
f 19/56/14 22/55/14 21/54/14 18/53/14
f 22/60/15 24/59/15 23/58/15 21/57/15
f 24/64/16 26/63/16 25/62/16 23/61/16
f 26/68/17 28/67/17 27/66/17 25/65/17
f 28/72/18 30/71/18 29/70/18 27/69/18
f 30/76/19 32/75/19 31/74/19 29/73/19
f 32/80/20 34/79/20 33/78/20 31/77/20
f 34/84/21 36/83/21 35/82/21 33/81/21
f 36/88/22 38/87/22 37/86/22 35/85/22
f 38/92/23 40/91/23 39/90/23 37/89/23
f 40/96/24 20/95/24 17/94/24 39/93/24
f 17/108/25 18/107/25 21/106/25 23/105/25 25/104/25 27/103/25 29/102/25 31/101/25 33/100/25 35/99/25 37/98/25 39/97/25
f 40/120/26 38/119/26 36/118/26 34/117/26 32/116/26 30/115/26 28/114/26 26/113/26 24/112/26 22/111/26 19/110/26 20/109/26
o group684364895
g mesh684364895
usemtl mat9
f 44/124/27 43/123/27 42/122/27 41/121/27
f 48/128/28 47/127/28 46/126/28 45/125/28
f 42/132/29 48/131/29 45/130/29 41/129/29
f 46/136/30 47/135/30 43/134/30 44/133/30
f 45/140/31 46/139/31 44/138/31 41/137/31
f 43/144/32 47/143/32 48/142/32 42/141/32
o group2005251453
g mesh2005251453
usemtl mat9
f 52/148/33 51/147/33 50/146/33 49/145/33
f 51/152/34 54/151/34 53/150/34 50/149/34
f 54/156/35 56/155/35 55/154/35 53/153/35
f 56/160/36 58/159/36 57/158/36 55/157/36
f 58/164/37 60/163/37 59/162/37 57/161/37
f 60/167/38 61/166/38 59/165/38
f 63/170/39 62/169/39 61/168/39
f 63/174/40 65/173/40 64/172/40 62/171/40
f 65/178/41 67/177/41 66/176/41 64/175/41
f 67/182/42 69/181/42 68/180/42 66/179/42
f 69/186/43 71/185/43 70/184/43 68/183/43
f 71/190/44 52/189/44 49/188/44 70/187/44
f 49/201/45 50/200/45 53/199/45 55/198/45 57/197/45 59/196/45 62/195/45 64/194/45 66/193/45 68/192/45 70/191/45
f 71/213/46 69/212/46 67/211/46 65/210/46 63/209/46 72/208/46 60/207/46 58/206/46 56/205/46 54/204/46 51/203/46 52/202/46
f 60/216/47 72/215/47 61/214/47
f 61/219/48 72/218/48 63/217/48
f 59/222/49 61/221/49 62/220/49
o group1857708213
g mesh1857708213
usemtl mat9
f 78/228/50 77/227/50 76/226/50 75/225/50 74/224/50 73/223/50
f 84/234/51 83/233/51 82/232/51 81/231/51 80/230/51 79/229/51
f 74/238/52 84/237/52 79/236/52 73/235/52
f 80/244/53 81/243/53 86/242/53 85/241/53 77/240/53 78/239/53
f 79/248/54 80/247/54 78/246/54 73/245/54
f 75/252/55 83/251/55 84/250/55 74/249/55
f 85/256/56 87/255/56 76/254/56 77/253/56
f 87/262/57 88/261/57 82/260/57 83/259/57 75/258/57 76/257/57
f 86/266/58 81/265/58 82/264/58 88/263/58
f 89/269/59 88/268/59 87/267/59
f 90/272/60 86/271/60 88/270/60
f 91/275/61 85/274/61 86/273/61
f 91/278/62 87/277/62 85/276/62
f 94/282/63 93/281/63 89/280/63 92/279/63
f 87/285/64 92/284/64 89/283/64
f 91/288/65 92/287/65 87/286/65
f 88/291/66 89/290/66 90/289/66
f 86/294/67 90/293/67 91/292/67
f 93/298/68 95/297/68 90/296/68 89/295/68
f 96/301/69 91/300/69 90/299/69
f 96/305/70 94/304/70 92/303/70 91/302/70
f 96/309/71 95/308/71 93/307/71 94/306/71
f 90/312/72 95/311/72 96/310/72
o group547588035
g mesh547588035
usemtl mat20
f 100/316/73 99/315/73 98/314/73 97/313/73
f 99/320/74 102/319/74 101/318/74 98/317/74
f 102/324/75 104/323/75 103/322/75 101/321/75
f 104/328/76 100/327/76 97/326/76 103/325/76
f 97/332/77 98/331/77 101/330/77 103/329/77
f 104/336/78 102/335/78 99/334/78 100/333/78
