mtllib materials.mtl
v -0.1969185 0.02737463 0.9646318
v -0.1953166 -0.09968424 0.9608722
v -0.3063241 -0.06106591 -0.3915842
v -0.3079261 0.06599307 -0.3878247
v -0.2989976 0.06288695 -0.2790463
v -0.2935731 0.06099987 -0.2129569
v -0.2692947 0.05255365 0.08283901
v -0.2628012 0.05029464 0.1619538
v 0.2473226 -0.05274808 -0.4367892
v 0.3583301 -0.09136653 0.9156673
v 0.3567282 0.03569245 0.9194269
v 0.2910239 0.05855024 0.1189194
v 0.2847487 0.06073332 0.0424664
v 0.260095 0.06931007 -0.2579008
v 0.2547571 0.07116711 -0.3229352
v 0.2457207 0.07431078 -0.4330297
v -0.059515 0.06646788 -0.298027
v 0.003192544 0.06740558 -0.3029971
v -0.05103731 0.06464016 -0.2326448
v 0.009780765 0.06555307 -0.2375817
v 0.008960366 0.002119422 -0.2959672
v 0.01331449 0.007210255 -0.2305369
v -0.04761326 0.009311557 -0.2278081
v -0.05385613 0.004276276 -0.2932736
v -0.2580655 0.07388711 0.2106376
v 0.2909286 0.07955801 0.15888
v 0.3027911 0.05281067 0.2587699
v -0.2550393 0.04744411 0.2647048
v 0.006501555 0.01561534 -0.3027967
v -0.06385839 0.01641631 -0.2958084
v -0.06389141 0.01142216 -0.2955686
v 0.006468534 0.01062119 -0.3025569
v -0.05683982 0.01974618 -0.2255259
v -0.05687284 0.01475203 -0.2252859
v 0.01352012 0.01894522 -0.2325141
v 0.0134871 0.01395106 -0.2322742
vn -0.9965715 -0.01497224 0.08136956
vn -0.9965715 -0.01497221 0.08137006
vn -0.9965715 -0.01497152 0.08136932
vn -0.9965715 -0.01497153 0.08136932
vn -0.9965717 -0.01496995 0.08136895
vn -0.9965715 -0.01497343 0.08136965
vn 0.9965715 0.01497216 -0.08136956
vn 0.9965716 0.01497112 -0.0813695
vn 0.9965715 0.01497328 -0.08136993
vn 0.9965715 0.01497161 -0.08136953
vn 0.9965716 0.01497102 -0.08136912
vn 0.9965715 0.01497175 -0.08136991
vn 0.01260105 -0.9994831 -0.02957381
vn 0.01260125 -0.9994831 -0.02957374
vn -0.0126008 0.9994832 0.02957393
vn -0.01260127 0.9994832 0.02957365
vn 0.08177023 -0.0284471 0.9962452
vn 0.08177022 -0.02844707 0.9962451
vn -0.08177035 0.02844667 -0.9962452
vn -0.08177032 0.0284466 -0.9962451
vn -0.01260108 0.9994832 0.02957408
vn -0.01260103 0.9994832 0.02957395
vn -0.0126009 0.9994831 0.0295738
vn -0.01260202 0.9994832 0.02957171
vn -0.01260116 0.9994832 0.02957302
vn -0.01260089 0.9994832 0.02957376
vn -0.01260086 0.9994831 0.02957427
vn -0.01260075 0.9994832 0.02957365
vn 0.07681412 0.113449 0.9905699
vn -0.9939418 -0.04827907 0.09873626
vn -0.07920144 -0.09167486 -0.9926344
vn 0.9906259 0.05019965 -0.1270447
vn 0.03079845 0.9963533 -0.07957123
vn 0.03079881 0.9963533 -0.07957161
vn 0.04545376 0.08024282 0.9957384
vn 0.9914705 0.08250314 -0.1008937
vn -0.9941603 -0.08003662 0.07238461
vn -0.04862592 -0.122638 -0.9912595
vn -0.01260094 0.9994832 0.02957371
vn -0.0126009 0.9994832 0.02957361
vn -0.01260191 0.9994831 0.02957485
vn -0.01260075 0.9994831 0.02957371
vn -0.9961458 0.02950058 0.0826038
vn -0.02610234 0.9870577 -0.1582268
vn -0.9837698 -0.1624955 0.07610678
vn 0.01163032 -0.9990508 -0.04198039
vn -0.006531423 0.9657547 0.2593742
vn -0.9961795 0.04225947 0.07642404
vn 0.009313606 -0.9995522 -0.02843328
vn -0.02550138 0.9863924 -0.1624181
vn 0.03198105 0.8985636 0.4376765
vn 0.9855996 0.1507047 -0.07669127
vn -0.09925675 -0.04707903 -0.9939475
vn -0.09925675 -0.04707902 -0.9939475
vn -0.9950398 0.01132788 0.09883007
vn -0.9950398 0.01132554 0.09883002
vn 0.0992569 0.0471027 0.9939464
vn 0.0992569 0.04710269 0.9939464
vn 0.9950398 -0.01132547 -0.09883019
vn 0.9950398 -0.01132789 -0.0988299
vn 0.006604794 0.9988264 -0.04798232
vn 0.006604795 0.9988264 -0.04798232
vn -0.006604802 -0.9988264 0.04798225
vn -0.006604807 -0.9988264 0.04798224
vt 0.4824762 0.5724492
vt 0.4857658 0.5670105
vt 0.543846 0.6021399
vt 0.5438461 0.6021398
vt 0.5405564 0.6075786
vt 0.535885 0.6047531
vt 0.543846 0.6021398
vt 0.535885 0.6047531
vt 0.5330468 0.6030365
vt 0.543846 0.6021398
vt 0.5330468 0.6030365
vt 0.5203441 0.5953533
vt 0.5438461 0.6021397
vt 0.5203442 0.5953532
vt 0.5169467 0.5932983
vt 0.5438458 0.6021399
vt 0.5169464 0.5932985
vt 0.4824761 0.5724493
vt 0.456154 0.6021398
vt 0.5142342 0.5670105
vt 0.5175238 0.5724492
vt 0.456154 0.6021398
vt 0.5175238 0.5724492
vt 0.4831466 0.593242
vt 0.4561541 0.6021399
vt 0.4831467 0.593242
vt 0.4798635 0.5952279
vt 0.456154 0.6021398
vt 0.4798634 0.5952278
vt 0.4669644 0.6030297
vt 0.456154 0.6021398
vt 0.4669644 0.6030297
vt 0.4641715 0.6047189
vt 0.4561539 0.6021398
vt 0.4641714 0.6047189
vt 0.4594435 0.6075786
vt 0.4603985 0.441791
vt 0.4678637 0.4685467
vt 0.4024833 0.4867887
vt 0.4603985 0.441791
vt 0.4024833 0.4867888
vt 0.395018 0.4600331
vt 0.5396015 0.441791
vt 0.5784046 0.4526176
vt 0.5708345 0.479344
vt 0.5396015 0.441791
vt 0.5708344 0.479344
vt 0.5321363 0.4685467
vt 0.5866984 0.4665278
vt 0.5924701 0.4691903
vt 0.5808346 0.4944135
vt 0.5866984 0.4665278
vt 0.5808346 0.4944135
vt 0.5750629 0.491751
vt 0.4133016 0.4665279
vt 0.4249371 0.491751
vt 0.4191653 0.4944136
vt 0.4133016 0.4665279
vt 0.4191653 0.4944136
vt 0.4075299 0.4691904
vt 0.5964674 0.4701293
vt 0.5997235 0.458566
vt 0.604982 0.4600331
vt 0.5964674 0.4701293
vt 0.604982 0.4600331
vt 0.5975168 0.4867888
vt 0.5975168 0.4867887
vt 0.5921946 0.4853038
vt 0.5956149 0.4731571
vt 0.5975166 0.4867887
vt 0.5956147 0.473157
vt 0.5964673 0.4701292
vt 0.5965284 0.4576744
vt 0.5997233 0.4585659
vt 0.5964674 0.4701292
vt 0.5965285 0.4576745
vt 0.5964674 0.4701293
vt 0.5932528 0.4693933
vt 0.5956149 0.4731571
vt 0.5921946 0.4853038
vt 0.5890507 0.4844266
vt 0.5956149 0.473157
vt 0.5890507 0.4844266
vt 0.5924314 0.4723319
vt 0.5981817 0.4874801
vt 0.5967821 0.4902971
vt 0.5937427 0.4890226
vt 0.5355416 0.6066859
vt 0.5327322 0.6049764
vt 0.5338598 0.6022573
vt 0.4051724 0.4891954
vt 0.4038264 0.4864571
vt 0.4063697 0.4853291
vt 0.4608271 0.60404
vt 0.4579291 0.6056136
vt 0.4598068 0.6014516
vt 0.5882471 0.4607731
vt 0.5874211 0.4638082
vt 0.5842306 0.463011
vt 0.5882471 0.460773
vt 0.5842305 0.463011
vt 0.5850261 0.4600653
vt 0.5925754 0.4854974
vt 0.594112 0.4827527
vt 0.5970095 0.4839405
vt 0.4687468 0.6094155
vt 0.4673384 0.6066186
vt 0.4702716 0.6051117
vt 0.5235906 0.6052074
vt 0.5264444 0.6068416
vt 0.5249084 0.6097576
vt 0.4033119 0.4852515
vt 0.4048239 0.4879017
vt 0.4021478 0.4891279
vt 0.5745303 0.4803752
vt 0.5822291 0.4536847
vt 0.5965285 0.4576745
vt 0.5745303 0.4803752
vt 0.5965285 0.4576745
vt 0.5932528 0.4693933
vt 0.5745304 0.4803753
vt 0.5932529 0.4693934
vt 0.5924315 0.4723321
vt 0.5745303 0.4803752
vt 0.5924314 0.4723319
vt 0.5890507 0.4844266
vt 0.5220841 0.5898976
vt 0.5255601 0.5918168
vt 0.5193698 0.5898259
vt 0.5636469 0.4439262
vt 0.5582924 0.4711838
vt 0.552519 0.4699468
vt 0.498325 0.6010074
vt 0.4954793 0.5984335
vt 0.4903305 0.5936571
vt 0.4282118 0.4799637
vt 0.4205002 0.4532777
vt 0.43497 0.478053
vt 0.5910472 0.4637144
vt 0.5843615 0.4907529
vt 0.5794345 0.4890766
vt 0.5194509 0.5888157
vt 0.5176504 0.5863997
vt 0.5221653 0.5888857
vt 0.4215891 0.4523731
vt 0.4265445 0.4509556
vt 0.4359277 0.4772244
vt 0.5521351 0.4697053
vt 0.5568082 0.4425313
vt 0.5632117 0.4436628
vt 0.6020921 0.4720205
vt 0.6048065 0.4733286
vt 0.5938076 0.4986127
vt 0.5075635 0.5935774
vt 0.5045338 0.597809
vt 0.4994232 0.6007659
vt 0.4111032 0.4872116
vt 0.4094956 0.4840628
vt 0.4097182 0.4839491
vt 0.4111032 0.4872116
vt 0.4097182 0.4839491
vt 0.4113259 0.487098
vt 0.5436792 0.5996455
vt 0.5404476 0.5982113
vt 0.540549 0.5979828
vt 0.5436789 0.5996457
vt 0.5405487 0.597983
vt 0.5437803 0.5994172
vt 0.5905061 0.484064
vt 0.5888985 0.4872129
vt 0.5886758 0.4870992
vt 0.5905061 0.484064
vt 0.5886758 0.4870992
vt 0.5902835 0.4839503
vt 0.4595526 0.5982115
vt 0.456321 0.5996457
vt 0.4562196 0.5994172
vt 0.4595524 0.5982113
vt 0.4562194 0.599417
vt 0.459451 0.5979828
vt 0.5863605 0.4664421
vt 0.5871418 0.4629939
vt 0.5905899 0.4637752
vt 0.5863605 0.4664421
vt 0.5905899 0.4637752
vt 0.5898086 0.4672234
vt 0.4101914 0.4672234
vt 0.4094101 0.4637752
vt 0.4128582 0.4629939
vt 0.4101914 0.4672234
vt 0.4128582 0.4629939
vt 0.4136395 0.4664421
o group1480825659
g mesh1480825659
usemtl mat9
f 3/3/1 2/2/1 1/1/1
f 5/6/2 4/5/2 3/4/2
f 6/9/3 5/8/3 3/7/3
f 7/12/4 6/11/4 3/10/4
f 8/15/5 7/14/5 3/13/5
f 1/18/6 8/17/6 3/16/6
f 11/21/7 10/20/7 9/19/7
f 12/24/8 11/23/8 9/22/8
f 13/27/9 12/26/9 9/25/9
f 14/30/10 13/29/10 9/28/10
f 15/33/11 14/32/11 9/31/11
f 16/36/12 15/35/12 9/34/12
f 9/39/13 10/38/13 2/37/13
f 3/42/14 9/41/14 2/40/14
f 12/45/15 8/44/15 1/43/15
f 11/48/16 12/47/16 1/46/16
f 11/51/17 1/50/17 2/49/17
f 10/54/18 11/53/18 2/52/18
f 16/57/19 9/56/19 3/55/19
f 4/60/20 16/59/20 3/58/20
f 4/63/21 5/62/21 17/61/21
f 16/66/22 4/65/22 17/64/22
f 18/69/23 15/68/23 16/67/23
f 17/72/24 18/71/24 16/70/24
f 17/75/25 5/74/25 6/73/25
f 19/78/26 17/77/26 6/76/26
f 14/81/27 15/80/27 18/79/27
f 20/84/28 14/83/28 18/82/28
f 21/87/29 18/86/29 17/85/29
f 22/90/30 20/89/30 18/88/30
f 23/93/31 19/92/31 20/91/31
f 23/96/32 17/95/32 19/94/32
f 22/99/33 21/98/33 24/97/33
f 23/102/34 22/101/34 24/100/34
f 17/105/35 24/104/35 21/103/35
f 23/108/36 24/107/36 17/106/36
f 18/111/37 21/110/37 22/109/37
f 20/114/38 22/113/38 23/112/38
f 6/117/39 7/116/39 13/115/39
f 19/120/40 6/119/40 13/118/40
f 20/123/41 19/122/41 13/121/41
f 14/126/42 20/125/42 13/124/42
f 25/129/43 7/128/43 8/127/43
f 26/132/44 13/131/44 7/130/44
f 27/135/45 12/134/45 13/133/45
f 27/138/46 8/137/46 12/136/46
f 27/141/47 26/140/47 28/139/47
f 8/144/48 28/143/48 25/142/48
f 27/147/49 28/146/49 8/145/49
f 7/150/50 25/149/50 26/148/50
f 26/153/51 25/152/51 28/151/51
f 13/156/52 26/155/52 27/154/52
o group177390681
g mesh177390681
usemtl mat20
f 31/159/53 30/158/53 29/157/53
f 32/162/54 31/161/54 29/160/54
f 34/165/55 33/164/55 30/163/55
f 31/168/56 34/167/56 30/166/56
f 36/171/57 35/170/57 33/169/57
f 34/174/58 36/173/58 33/172/58
f 32/177/59 29/176/59 35/175/59
f 36/180/60 32/179/60 35/178/60
f 30/183/61 33/182/61 35/181/61
f 29/186/62 30/185/62 35/184/62
f 34/189/63 31/188/63 32/187/63
f 36/192/64 34/191/64 32/190/64
