mtllib materials.mtl
v -0.1953166 -0.09968424 0.9608722
v -0.3063241 -0.06106591 -0.3915842
v -0.3079261 0.06599307 -0.3878247
v -0.2989976 0.06288695 -0.2790463
v -0.2935731 0.06099987 -0.2129569
v -0.2692947 0.05255365 0.08283901
v -0.2628012 0.05029464 0.1619538
v -0.1969185 0.02737463 0.9646318
v 0.3583301 -0.09136653 0.9156673
v 0.3567282 0.03569245 0.9194269
v 0.2910239 0.05855024 0.1189194
v 0.2847487 0.06073332 0.0424664
v 0.260095 0.06931007 -0.2579008
v 0.2547571 0.07116711 -0.3229352
v 0.2457207 0.07431078 -0.4330297
v 0.2473226 -0.05274808 -0.4367892
v 0.003192544 0.06740558 -0.3029971
v -0.059515 0.06646788 -0.298027
v -0.05103731 0.06464016 -0.2326448
v 0.009780765 0.06555307 -0.2375817
v 0.008960366 0.002119422 -0.2959672
v 0.01331449 0.007210255 -0.2305369
v -0.04761326 0.009311557 -0.2278081
v -0.05385613 0.004276276 -0.2932736
v -0.2580655 0.07388711 0.2106376
v 0.2909286 0.07955801 0.15888
v 0.3027911 0.05281067 0.2587699
v -0.2550393 0.04744411 0.2647048
v 0.006501555 0.01561534 -0.3027967
v -0.06385839 0.01641631 -0.2958084
v -0.06389141 0.01142216 -0.2955686
v 0.006468534 0.01062119 -0.3025569
v -0.05683982 0.01974618 -0.2255259
v -0.05687284 0.01475203 -0.2252859
v 0.01352012 0.01894522 -0.2325141
v 0.0134871 0.01395106 -0.2322742
vn -0.9965716 -0.01497244 0.08136952
vn 0.9965715 0.01497189 -0.08136953
vn 0.01260113 -0.9994832 -0.02957378
vn -0.01260097 0.9994832 0.0295738
vn 0.08177025 -0.02844703 0.9962451
vn -0.08177025 0.02844703 -0.9962451
vn -0.01260111 0.9994832 0.02957377
vn -0.01260102 0.9994832 0.02957338
vn -0.01260082 0.9994832 0.02957393
vn 0.07681262 0.1134493 0.9905701
vn -0.9939418 -0.04827903 0.09873625
vn -0.07920013 -0.09167644 -0.9926342
vn 0.990626 0.05019946 -0.1270447
vn 0.03079868 0.9963533 -0.07957143
vn 0.04545283 0.0802442 0.9957384
vn 0.9914705 0.08250298 -0.1008937
vn -0.9941603 -0.08003668 0.07238462
vn -0.04862606 -0.1226382 -0.9912596
vn -0.01260095 0.9994832 0.02957378
vn -0.9961457 0.02950894 0.0826024
vn -0.02610236 0.9870577 -0.1582269
vn -0.9837621 -0.1625437 0.07610431
vn 0.01163033 -0.9990508 -0.04198036
vn -0.006531427 0.9657549 0.2593742
vn -0.9961793 0.04226411 0.07642438
vn 0.009313614 -0.9995523 -0.02843323
vn -0.02550138 0.9863924 -0.1624182
vn 0.03198108 0.8985636 0.4376767
vn 0.9855996 0.1507054 -0.07669109
vn -0.09925662 -0.04709183 -0.9939469
vn -0.9950399 0.01132785 0.09882907
vn 0.09925662 0.04709194 0.9939469
vn 0.9950399 -0.01132801 -0.09882914
vn 0.006605257 0.9988263 -0.04798273
vn -0.006605258 -0.9988263 0.04798273
vt -0.02846853 0.134021
vt 0.0876918 0.2042798
vt 0.0811126 0.2151573
vt 0.0717698 0.2095064
vt 0.06609349 0.2060731
vt 0.04068805 0.1907068
vt 0.033893 0.1865968
vt -0.03504773 0.1448985
vt 0.02846842 0.1340209
vt 0.03504762 0.1448984
vt -0.03370672 0.186484
vt -0.04027314 0.1904557
vt -0.06607122 0.2060594
vt -0.07165692 0.2094379
vt -0.08111276 0.2151572
vt -0.08769195 0.2042797
vt -0.07920299 -0.116418
vt -0.06427257 -0.06290669
vt -0.1950335 -0.02642247
vt -0.2099639 -0.07993374
vt 0.07920301 -0.116418
vt 0.1568092 -0.09476472
vt 0.1416689 -0.04131199
vt 0.06427258 -0.0629067
vt 0.1733968 -0.06694432
vt 0.1849402 -0.06161933
vt 0.1616693 -0.01117296
vt 0.1501258 -0.01649796
vt -0.1733968 -0.06694433
vt -0.1501258 -0.01649796
vt -0.1616693 -0.01117296
vt -0.1849402 -0.06161933
vt 0.1994468 -0.08286817
vt 0.2099639 -0.07993374
vt 0.1950335 -0.02642247
vt 0.1843891 -0.0293924
vt 0.1912297 -0.05368584
vt 0.1929348 -0.05974147
vt 0.193057 -0.08465107
vt 0.1994468 -0.08286823
vt 0.1929348 -0.05974152
vt 0.1865056 -0.06121339
vt 0.1912297 -0.05368584
vt 0.1843892 -0.0293924
vt 0.1781014 -0.03114679
vt 0.1848629 -0.05533613
vt 0.1963636 -0.02503998
vt 0.1935643 -0.01940596
vt 0.1874855 -0.02195496
vt 0.07108321 0.2133718
vt 0.06546449 0.2099528
vt 0.06771974 0.2045146
vt -0.1896555 -0.02160915
vt -0.1923476 -0.02708574
vt -0.1872609 -0.02934176
vt -0.07834573 0.2080799
vt -0.0841419 0.2112271
vt -0.08038648 0.2029032
vt 0.1764942 -0.07845396
vt 0.1748422 -0.07238361
vt 0.1684612 -0.07397801
vt 0.1700524 -0.0798694
vt 0.1851511 -0.02900525
vt 0.1882243 -0.03449465
vt 0.1940192 -0.03211901
vt -0.06250657 0.218831
vt -0.06532338 0.2132372
vt -0.05945677 0.2102234
vt 0.04718111 0.2104148
vt 0.0528888 0.2136832
vt 0.04981679 0.2195152
vt -0.1933762 -0.02949701
vt -0.1903522 -0.02419649
vt -0.1957044 -0.02174415
vt 0.1644583 -0.09263049
vt 0.193057 -0.08465102
vt 0.1865057 -0.06121334
vt 0.1848629 -0.05533614
vt 0.1781014 -0.03114679
vt 0.1490607 -0.03924958
vt 0.04416937 0.1797938
vt 0.05112135 0.1836323
vt 0.03874066 0.1796504
vt 0.1272938 -0.1121477
vt 0.1165847 -0.05763232
vt 0.105038 -0.06010637
vt -0.003368962 0.2020165
vt -0.009059893 0.1968682
vt -0.01935675 0.1873146
vt -0.1435764 -0.04007271
vt -0.1589995 -0.09344452
vt -0.13006 -0.04389406
vt 0.1820944 -0.07257116
vt 0.168723 -0.0184942
vt 0.158869 -0.02184674
vt 0.03890292 0.1776306
vt 0.03530173 0.1727986
vt 0.04433172 0.1777706
vt -0.1568218 -0.09525389
vt -0.1469109 -0.09808888
vt -0.1281445 -0.04555117
vt 0.1042701 -0.06058942
vt 0.1136164 -0.1149374
vt 0.1264233 -0.1126745
vt 0.2041842 -0.05595899
vt 0.209613 -0.05334286
vt 0.1876151 -0.002774613
vt 0.01512737 0.1871549
vt 0.009067966 0.1956181
vt -0.001153352 0.2015317
vt -0.1777954 -0.02557538
vt -0.1810108 -0.03187311
vt -0.1805654 -0.03210047
vt -0.1773501 -0.02580274
vt 0.08735795 0.1992911
vt 0.0808948 0.1964227
vt 0.08109762 0.1959657
vt 0.08756078 0.1988341
vt 0.1810108 -0.0318731
vt 0.1777954 -0.02557536
vt 0.1773501 -0.02580272
vt 0.1805654 -0.03210046
vt -0.08089486 0.1964227
vt -0.08735801 0.199291
vt -0.08756084 0.198834
vt -0.08109768 0.1959656
vt 0.1727209 -0.06711596
vt 0.1742835 -0.07401221
vt 0.1811797 -0.07244961
vt 0.1796171 -0.06555335
vt -0.1796171 -0.06555335
vt -0.1811797 -0.07244961
vt -0.1742835 -0.07401221
vt -0.1727209 -0.06711596
o group1480825659
g mesh1480825659
usemtl mat9
f 8/8/1 7/7/1 6/6/1 5/5/1 4/4/1 3/3/1 2/2/1 1/1/1
f 16/16/2 15/15/2 14/14/2 13/13/2 12/12/2 11/11/2 10/10/2 9/9/2
f 2/20/3 16/19/3 9/18/3 1/17/3
f 10/24/4 11/23/4 7/22/4 8/21/4
f 9/28/5 10/27/5 8/26/5 1/25/5
f 3/32/6 15/31/6 16/30/6 2/29/6
f 18/38/7 17/37/7 14/36/7 15/35/7 3/34/7 4/33/7
f 19/42/8 18/41/8 4/40/8 5/39/8
f 20/46/9 13/45/9 14/44/9 17/43/9
f 21/49/10 17/48/10 18/47/10
f 22/52/11 20/51/11 17/50/11
f 23/55/12 19/54/12 20/53/12
f 23/58/13 18/57/13 19/56/13
f 23/62/14 22/61/14 21/60/14 24/59/14
f 18/65/15 24/64/15 21/63/15
f 23/68/16 24/67/16 18/66/16
f 17/71/17 21/70/17 22/69/17
f 20/74/18 22/73/18 23/72/18
f 12/80/19 13/79/19 20/78/19 19/77/19 5/76/19 6/75/19
f 25/83/20 6/82/20 7/81/20
f 26/86/21 12/85/21 6/84/21
f 27/89/22 11/88/22 12/87/22
f 27/92/23 7/91/23 11/90/23
f 27/95/24 26/94/24 28/93/24
f 7/98/25 28/97/25 25/96/25
f 27/101/26 28/100/26 7/99/26
f 6/104/27 25/103/27 26/102/27
f 26/107/28 25/106/28 28/105/28
f 12/110/29 26/109/29 27/108/29
o group177390681
g mesh177390681
usemtl mat20
f 32/114/30 31/113/30 30/112/30 29/111/30
f 31/118/31 34/117/31 33/116/31 30/115/31
f 34/122/32 36/121/32 35/120/32 33/119/32
f 36/126/33 32/125/33 29/124/33 35/123/33
f 29/130/34 30/129/34 33/128/34 35/127/34
f 36/134/35 34/133/35 31/132/35 32/131/35
