mtllib materials.mtl
v -0.295 -0.06500018 0.4799999
v -0.295 -0.06500018 -0.1800001
v -0.295 0.03499985 -0.1800001
v -0.295 0.03499985 0.4799999
v 0.3049999 -0.06500006 0.48
v 0.3049999 0.03499997 0.48
v 0.305 0.03499997 -0.1799999
v 0.305 -0.06500006 -0.1799999
v 0.004999995 0.03499997 -0.09000003
v -0.01499999 0.03499997 -0.0846411
v -0.01499999 -0.04499996 -0.0846411
v 0.004999995 -0.04499996 -0.09000003
v -0.02964103 0.03499997 -0.07000005
v -0.02964103 -0.04499996 -0.07000005
v -0.03499997 0.03499997 -0.05000007
v -0.03499997 -0.04499996 -0.05000007
v -0.02964103 0.03499997 -0.03000009
v -0.02964103 -0.04499996 -0.03000009
v -0.01499999 0.03499997 -0.01535904
v -0.01499999 -0.04499996 -0.01535904
v 0.004999995 0.03499997 -0.01000011
v 0.004999995 -0.04499996 -0.01000011
v 0.02499998 0.03499997 -0.01535904
v 0.02499998 -0.04499996 -0.01535904
v 0.03964102 0.03499997 -0.03000009
v 0.03964102 -0.04499996 -0.03000009
v 0.04499996 0.03499997 -0.05000007
v 0.04500002 -0.04499996 -0.05000007
v 0.03964102 0.03499997 -0.07000005
v 0.03964102 -0.04499996 -0.07000005
v 0.02499998 0.03499997 -0.0846411
v 0.02499998 -0.04499996 -0.0846411
v -0.004999995 0.04499984 -0.08999991
v -0.02499998 0.04499984 -0.08464098
v -0.02499998 -0.03500009 -0.08464098
v -0.004999995 -0.03500009 -0.08999991
v -0.03964102 0.04499984 -0.06999993
v -0.03964102 -0.03500009 -0.06999993
v -0.04499996 0.04499984 -0.04999995
v -0.04499996 -0.03500009 -0.04999995
v -0.03964102 0.04499984 -0.02999997
v -0.03964102 -0.03500009 -0.02999997
v -0.02499998 0.04499984 -0.01535892
v -0.02499998 -0.03500009 -0.01535892
v -0.004999995 0.04499984 -0.00999999
v -0.004999995 -0.03500009 -0.00999999
v 0.01499999 0.04499984 -0.01535892
v 0.01499999 -0.03500009 -0.01535892
v 0.02964103 0.04499984 -0.02999997
v 0.02964103 -0.03500009 -0.02999997
v 0.03500003 0.04499984 -0.04999995
v 0.03500003 -0.03500009 -0.04999995
v 0.02964103 0.04499984 -0.06999993
v 0.02964103 -0.03500009 -0.06999993
v 0.01499999 0.04499984 -0.08464098
v 0.01499999 -0.03500009 -0.08464098
v -0.004999995 0.04499996 -0.08000004
v -0.01999998 0.04499996 -0.07598078
v -0.01999998 -0.01499999 -0.07598078
v -0.004999995 -0.01499999 -0.08000004
v -0.03098071 0.04499996 -0.06500006
v -0.03098071 -0.01499999 -0.06500006
v -0.03499997 0.04499996 -0.05000007
v -0.03499997 -0.01499999 -0.05000007
v -0.03098071 0.04499996 -0.03500009
v -0.03098071 -0.01499999 -0.03500009
v -0.01999998 0.04499996 -0.02401936
v -0.01999998 -0.01499999 -0.02401936
v -0.004999995 0.04499996 -0.0200001
v -0.004999995 -0.01499999 -0.0200001
v 0.00999999 0.04499996 -0.02401936
v 0.00999999 -0.01499999 -0.02401936
v 0.02098072 0.04499996 -0.03500009
v 0.02098072 -0.01499999 -0.03500009
v 0.02499998 0.04499996 -0.05000007
v 0.02499998 -0.01499999 -0.05000007
v 0.02098072 0.04499996 -0.06500006
v 0.02098072 -0.01499999 -0.06500006
v 0.00999999 0.04499996 -0.0759809
v 0.00999999 -0.01499999 -0.07598078
vn -1 0 0
vn -1 0 0
vn 1 0 9.031008E-08
vn 1 0 9.031008E-08
vn 1.986822E-07 -1 1.837364E-14
vn 1.986822E-07 -1 0
vn -1.986822E-07 1 0
vn -1.986822E-07 1 -1.837364E-14
vn -1.986822E-07 0 1
vn -1.986822E-07 0 1
vn 1.986822E-07 0 -1
vn 1.986822E-07 0 -1
vn -0.258817 0 -0.9659263
vn -0.258817 0 -0.9659263
vn -0.7071068 0 -0.7071068
vn -0.7071068 0 -0.7071068
vn -0.9659263 0 -0.258817
vn -0.9659263 0 -0.258817
vn -0.9659263 0 0.258817
vn -0.9659263 0 0.258817
vn -0.7071068 0 0.7071068
vn -0.7071068 0 0.7071068
vn -0.258817 0 0.9659263
vn -0.258817 0 0.9659263
vn 0.258817 0 0.9659263
vn 0.258817 0 0.9659263
vn 0.7071068 0 0.7071068
vn 0.7071068 0 0.7071068
vn 0.9659263 7.196718E-07 0.258817
vn 0.9659256 0 0.2588197
vn 0.9659263 0 -0.258817
vn 0.9659256 7.196713E-07 -0.2588197
vn 0.7071068 0 -0.7071068
vn 0.7071068 0 -0.7071068
vn 0.258817 0 -0.9659263
vn 0.258817 0 -0.9659263
vn 0 1 0
vn 0 1 0
vn 0 1 0
vn 0 1 0
vn 0 1 0
vn 0 1 0
vn 0 1 0
vn 0 1 0
vn 0 1 0
vn 0 1 0
vn 0 -1 0
vn 0 -1 0
vn 0 -1 0
vn 0 -1 0
vn 0 -1 0
vn 0 -1 0
vn 0 -1 0
vn 0 -1 0
vn 0 -1 0
vn 0 -1 0
vn -0.258817 0 -0.9659263
vn -0.258817 0 -0.9659263
vn -0.7071068 0 -0.7071068
vn -0.7071068 0 -0.7071068
vn -0.9659263 0 -0.258817
vn -0.9659263 0 -0.258817
vn -0.9659263 0 0.258817
vn -0.9659263 0 0.258817
vn -0.7071068 0 0.7071068
vn -0.7071068 0 0.7071068
vn -0.258817 0 0.9659263
vn -0.258817 0 0.9659263
vn 0.258817 0 0.9659263
vn 0.258817 0 0.9659263
vn 0.7071068 0 0.7071068
vn 0.7071068 0 0.7071068
vn 0.9659256 0 0.2588197
vn 0.9659256 0 0.2588197
vn 0.9659256 0 -0.2588197
vn 0.9659256 0 -0.2588197
vn 0.7071068 0 -0.7071068
vn 0.7071068 0 -0.7071068
vn 0.258817 0 -0.9659263
vn 0.258817 0 -0.9659263
vn 0 1 0
vn 0 1 0
vn 0 1 0
vn 0 1 0
vn 0 1 0
vn 0 1 0
vn 0 1 0
vn 0 1 0
vn 0 1 0
vn 0 1 0
vn 0 -1 0
vn 0 -1 0
vn 0 -1 0
vn 0 -1 0
vn 0 -1 0
vn 0 -1 0
vn 0 -1 0
vn 0 -1 0
vn 0 -1 0
vn 0 -1 0
vn -0.2588206 0 -0.9659254
vn -0.2588206 0 -0.9659254
vn -0.7071068 0 -0.7071068
vn -0.7071068 0 -0.7071068
vn -0.9659254 0 -0.2588206
vn -0.9659254 0 -0.2588206
vn -0.9659254 0 0.2588206
vn -0.9659254 0 0.2588206
vn -0.7071068 0 0.7071068
vn -0.7071068 0 0.7071068
vn -0.2588206 0 0.9659254
vn -0.2588206 0 0.9659254
vn 0.2588206 0 0.9659254
vn 0.2588206 0 0.9659254
vn 0.7071068 0 0.7071068
vn 0.7071068 0 0.7071068
vn 0.9659254 0 0.2588206
vn 0.9659254 0 0.2588206
vn 0.9659254 0 -0.2588206
vn 0.9659254 0 -0.2588206
vn 0.7071106 -1.404889E-06 -0.707103
vn 0.7071068 0 -0.7071068
vn 0.2588135 0 -0.9659273
vn 0.2588206 -1.919123E-06 -0.9659254
vn 0 1 0
vn 0 1 0
vn 0 1 0
vn 0 1 0
vn 0 1 0
vn 0 1 0
vn 0 1 0
vn 0 1 0
vn 0 1 0
vn 0 1 0
vn 0 -1 0
vn 0 -1 0
vn 0 -1 0
vn 0 -1 0
vn 0 -1 0
vn 0 -1 0
vn 0 -1 0
vn 0 -1 0
vn 0 -1 0
vn 0 -1 0
vt 0.4966288 0.5743985
vt 0.523482 0.5935794
vt 0.5205758 0.597648
vt 0.4966288 0.5743985
vt 0.5205758 0.597648
vt 0.4937226 0.5784671
vt 0.5033712 0.5743985
vt 0.5062774 0.5784671
vt 0.4794242 0.597648
vt 0.5033712 0.5743985
vt 0.4794242 0.597648
vt 0.476518 0.5935794
vt 0.4394931 0.4509958
vt 0.4495832 0.479248
vt 0.4185057 0.4903471
vt 0.4394931 0.4509958
vt 0.4185057 0.4903471
vt 0.4084156 0.4620949
vt 0.5605069 0.4509958
vt 0.5915844 0.4620949
vt 0.5814943 0.4903471
vt 0.5605069 0.4509958
vt 0.5814943 0.4903471
vt 0.5504168 0.479248
vt 0.5856414 0.4684714
vt 0.5901135 0.4707075
vt 0.5766971 0.4975403
vt 0.5856414 0.4684714
vt 0.5766971 0.4975403
vt 0.572225 0.4953043
vt 0.4143586 0.4684714
vt 0.427775 0.4953043
vt 0.4233029 0.4975403
vt 0.4143586 0.4684714
vt 0.4233029 0.4975403
vt 0.4098864 0.4707075
vt 0.4253473 0.5000019
vt 0.4249051 0.4990658
vt 0.4285218 0.4973572
vt 0.4253473 0.5000019
vt 0.4285218 0.4973572
vt 0.428964 0.4982933
vt 0.4454415 0.5413687
vt 0.4449632 0.5404505
vt 0.4485106 0.5386022
vt 0.4454415 0.5413687
vt 0.4485106 0.5386022
vt 0.4489889 0.5395204
vt 0.4811171 0.5830294
vt 0.4804568 0.5822321
vt 0.4835376 0.5796808
vt 0.4811171 0.5830294
vt 0.4835376 0.5796808
vt 0.4841979 0.5804782
vt 0.5659605 0.5798607
vt 0.5649403 0.5796849
vt 0.5656195 0.575743
vt 0.5659605 0.5798607
vt 0.5656195 0.575743
vt 0.5666398 0.5759187
vt 0.6077895 0.4932303
vt 0.6070234 0.4939267
vt 0.6043326 0.4909671
vt 0.6077895 0.4932303
vt 0.6043326 0.4909671
vt 0.6050987 0.4902706
vt 0.5921659 0.4748615
vt 0.5916516 0.47576
vt 0.5881801 0.4737729
vt 0.5921659 0.4748615
vt 0.5881801 0.4737729
vt 0.5886944 0.4728744
vt 0.5750949 0.4990658
vt 0.5746527 0.5000019
vt 0.571036 0.4982933
vt 0.5750949 0.4990658
vt 0.571036 0.4982933
vt 0.5714782 0.4973572
vt 0.5550368 0.5404505
vt 0.5545585 0.5413687
vt 0.5510111 0.5395204
vt 0.5550368 0.5404505
vt 0.5510111 0.5395204
vt 0.5514894 0.5386022
vt 0.5195433 0.5822321
vt 0.518883 0.5830294
vt 0.5158021 0.5804782
vt 0.5195435 0.5822319
vt 0.5158024 0.580478
vt 0.5164627 0.5796807
vt 0.4350597 0.5796849
vt 0.4340394 0.5798607
vt 0.4333602 0.5759187
vt 0.4350592 0.5796846
vt 0.4333597 0.5759184
vt 0.4343799 0.5757426
vt 0.3929766 0.4939267
vt 0.3922106 0.4932303
vt 0.3949013 0.4902706
vt 0.3929766 0.4939267
vt 0.3949013 0.4902706
vt 0.3956673 0.4909671
vt 0.4083484 0.47576
vt 0.4078341 0.4748616
vt 0.4113056 0.4728744
vt 0.4083484 0.47576
vt 0.4113056 0.4728744
vt 0.4118199 0.4737729
vt 0.5823015 0.4747075
vt 0.5817128 0.4755591
vt 0.5807772 0.4760023
vt 0.5823015 0.4747075
vt 0.5807772 0.4760023
vt 0.5797454 0.4759183
vt 0.5823015 0.4747075
vt 0.5797454 0.4759183
vt 0.5788937 0.4753296
vt 0.5823015 0.4747075
vt 0.5788937 0.4753296
vt 0.5784506 0.474394
vt 0.5823015 0.4747075
vt 0.5784506 0.474394
vt 0.5785345 0.4733621
vt 0.5823015 0.4747075
vt 0.5785345 0.4733621
vt 0.5791233 0.4725105
vt 0.5823015 0.4747075
vt 0.5791233 0.4725105
vt 0.5800589 0.4720674
vt 0.5823015 0.4747075
vt 0.5800589 0.4720674
vt 0.5810907 0.4721513
vt 0.5823015 0.4747075
vt 0.5810907 0.4721513
vt 0.5819423 0.47274
vt 0.5823015 0.4747075
vt 0.5819423 0.47274
vt 0.5823855 0.4736756
vt 0.4182872 0.4755591
vt 0.4176985 0.4747075
vt 0.4176145 0.4736756
vt 0.4182872 0.4755591
vt 0.4176145 0.4736756
vt 0.4180577 0.47274
vt 0.4182872 0.4755591
vt 0.4180577 0.47274
vt 0.4189093 0.4721513
vt 0.4182872 0.4755591
vt 0.4189093 0.4721513
vt 0.4199412 0.4720674
vt 0.4182872 0.4755591
vt 0.4199412 0.4720674
vt 0.4208768 0.4725105
vt 0.4182872 0.4755591
vt 0.4208768 0.4725105
vt 0.4214655 0.4733621
vt 0.4182872 0.4755591
vt 0.4214655 0.4733621
vt 0.4215494 0.474394
vt 0.4182872 0.4755591
vt 0.4215494 0.474394
vt 0.4211062 0.4753296
vt 0.4182872 0.4755591
vt 0.4211062 0.4753296
vt 0.4202546 0.4759183
vt 0.4182872 0.4755591
vt 0.4202546 0.4759183
vt 0.4192228 0.4760023
vt 0.4246889 0.4997788
vt 0.4242467 0.4988427
vt 0.4278634 0.4971341
vt 0.4246889 0.4997788
vt 0.4278634 0.4971341
vt 0.4283057 0.4980702
vt 0.4448348 0.5412862
vt 0.4443564 0.540368
vt 0.4479038 0.5385197
vt 0.4448348 0.5412862
vt 0.4479038 0.5385197
vt 0.4483821 0.5394379
vt 0.4806495 0.5832486
vt 0.4799892 0.5824513
vt 0.48307 0.5799
vt 0.4806495 0.5832486
vt 0.48307 0.5799
vt 0.4837303 0.5806974
vt 0.5660031 0.5803754
vt 0.564983 0.5801995
vt 0.5656621 0.5762576
vt 0.5660031 0.5803754
vt 0.5656621 0.5762576
vt 0.5666824 0.5764335
vt 0.6083874 0.4933625
vt 0.6076214 0.4940589
vt 0.6049306 0.4910992
vt 0.6083874 0.4933625
vt 0.6049306 0.4910992
vt 0.6056966 0.4904028
vt 0.5928398 0.4746908
vt 0.5923254 0.4755893
vt 0.588854 0.4736021
vt 0.5928398 0.4746908
vt 0.588854 0.4736021
vt 0.5893683 0.4727036
vt 0.5757533 0.4988427
vt 0.5753111 0.4997788
vt 0.5716944 0.4980702
vt 0.5757533 0.4988427
vt 0.5716944 0.4980702
vt 0.5721366 0.4971341
vt 0.5556436 0.540368
vt 0.5551652 0.5412862
vt 0.5516179 0.5394379
vt 0.5556436 0.540368
vt 0.5516179 0.5394379
vt 0.5520962 0.5385197
vt 0.5200111 0.5824511
vt 0.5193508 0.5832484
vt 0.51627 0.5806972
vt 0.5200111 0.5824511
vt 0.51627 0.5806972
vt 0.5169303 0.5798998
vt 0.4350165 0.5801992
vt 0.4339963 0.580375
vt 0.4333171 0.5764331
vt 0.4350165 0.5801992
vt 0.4333171 0.5764331
vt 0.4343373 0.5762573
vt 0.3923787 0.4940589
vt 0.3916126 0.4933625
vt 0.3943034 0.4904028
vt 0.3923787 0.4940589
vt 0.3943034 0.4904028
vt 0.3950694 0.4910992
vt 0.4076746 0.4755893
vt 0.4071603 0.4746908
vt 0.4106317 0.4727037
vt 0.4076746 0.4755893
vt 0.4106317 0.4727037
vt 0.411146 0.4736021
vt 0.5824697 0.4742366
vt 0.581881 0.4750882
vt 0.5809454 0.4755314
vt 0.5824697 0.4742366
vt 0.5809454 0.4755314
vt 0.5799135 0.4754474
vt 0.5824697 0.4742366
vt 0.5799135 0.4754474
vt 0.5790619 0.4748588
vt 0.5824697 0.4742366
vt 0.5790619 0.4748588
vt 0.5786187 0.4739231
vt 0.5824697 0.4742366
vt 0.5786187 0.4739231
vt 0.5787027 0.4728913
vt 0.5824697 0.4742366
vt 0.5787027 0.4728913
vt 0.5792914 0.4720397
vt 0.5824697 0.4742366
vt 0.5792914 0.4720397
vt 0.580227 0.4715965
vt 0.5824697 0.4742366
vt 0.580227 0.4715965
vt 0.5812589 0.4716805
vt 0.5824697 0.4742366
vt 0.5812589 0.4716805
vt 0.5821105 0.4722691
vt 0.5824697 0.4742366
vt 0.5821105 0.4722691
vt 0.5825537 0.4732048
vt 0.418119 0.4750882
vt 0.4175303 0.4742366
vt 0.4174463 0.4732048
vt 0.418119 0.4750882
vt 0.4174463 0.4732048
vt 0.4178895 0.4722691
vt 0.418119 0.4750882
vt 0.4178895 0.4722691
vt 0.4187411 0.4716805
vt 0.418119 0.4750882
vt 0.4187411 0.4716805
vt 0.419773 0.4715965
vt 0.418119 0.4750882
vt 0.419773 0.4715965
vt 0.4207086 0.4720397
vt 0.418119 0.4750882
vt 0.4207086 0.4720397
vt 0.4212973 0.4728913
vt 0.418119 0.4750882
vt 0.4212973 0.4728913
vt 0.4213813 0.4739231
vt 0.418119 0.4750882
vt 0.4213813 0.4739231
vt 0.4209381 0.4748588
vt 0.418119 0.4750882
vt 0.4209381 0.4748588
vt 0.4200865 0.4754474
vt 0.418119 0.4750882
vt 0.4200865 0.4754474
vt 0.4190546 0.4755314
vt 0.4246338 0.499662
vt 0.4243021 0.49896
vt 0.4270146 0.4976785
vt 0.4246338 0.499662
vt 0.4270146 0.4976785
vt 0.4273463 0.4983806
vt 0.444775 0.5411714
vt 0.4444162 0.5404828
vt 0.4470767 0.5390966
vt 0.444775 0.5411714
vt 0.4470767 0.5390966
vt 0.4474355 0.5397852
vt 0.4805666 0.5831487
vt 0.4800713 0.5825507
vt 0.4823819 0.5806373
vt 0.4805666 0.5831487
vt 0.4823819 0.5806373
vt 0.4828772 0.5812353
vt 0.5658764 0.5803529
vt 0.5651112 0.5802211
vt 0.5656206 0.5772647
vt 0.5658764 0.5803529
vt 0.5656206 0.5772647
vt 0.5663858 0.5773965
vt 0.6082916 0.4934495
vt 0.6077171 0.4939718
vt 0.6056991 0.4917521
vt 0.6082916 0.4934495
vt 0.6056991 0.4917521
vt 0.6062735 0.4912297
vt 0.5927756 0.474803
vt 0.5923899 0.4754769
vt 0.5897862 0.4739866
vt 0.5927756 0.474803
vt 0.5897862 0.4739866
vt 0.590172 0.4733127
vt 0.5756979 0.49896
vt 0.5753662 0.499662
vt 0.5726537 0.4983806
vt 0.5756979 0.49896
vt 0.5726537 0.4983806
vt 0.5729854 0.4976785
vt 0.5555838 0.5404828
vt 0.555225 0.5411714
vt 0.5525645 0.5397852
vt 0.5555838 0.5404828
vt 0.5525645 0.5397852
vt 0.5529233 0.5390966
vt 0.5199286 0.5825507
vt 0.5194334 0.5831487
vt 0.5171228 0.5812353
vt 0.5199286 0.5825507
vt 0.5171228 0.5812353
vt 0.5176181 0.5806373
vt 0.4348888 0.5802211
vt 0.4341236 0.5803529
vt 0.4336142 0.5773965
vt 0.4348888 0.5802211
vt 0.4336142 0.5773965
vt 0.4343794 0.5772647
vt 0.3922828 0.4939725
vt 0.3917083 0.4934502
vt 0.3937263 0.4912305
vt 0.3922829 0.4939718
vt 0.3937264 0.4912297
vt 0.394301 0.4917521
vt 0.4076104 0.475477
vt 0.4072247 0.4748032
vt 0.4098283 0.4733128
vt 0.40761 0.475477
vt 0.4098279 0.4733128
vt 0.4102136 0.4739867
vt 0.5819988 0.4740685
vt 0.5815573 0.4747072
vt 0.5808556 0.4750396
vt 0.5819988 0.4740685
vt 0.5808556 0.4750396
vt 0.5800817 0.4749766
vt 0.5819988 0.4740685
vt 0.5800817 0.4749766
vt 0.579443 0.4745351
vt 0.5819988 0.4740685
vt 0.579443 0.4745351
vt 0.5791106 0.4738334
vt 0.5819988 0.4740685
vt 0.5791106 0.4738334
vt 0.5791736 0.4730594
vt 0.5819988 0.4740685
vt 0.5791736 0.4730594
vt 0.5796151 0.4724208
vt 0.5819988 0.4740685
vt 0.5796151 0.4724208
vt 0.5803168 0.4720883
vt 0.5819988 0.4740685
vt 0.5803168 0.4720883
vt 0.5810907 0.4721513
vt 0.5819988 0.4740685
vt 0.5810907 0.4721513
vt 0.5817294 0.4725929
vt 0.5819988 0.4740685
vt 0.5817294 0.4725929
vt 0.5820618 0.4732946
vt 0.4184427 0.4747072
vt 0.4180012 0.4740685
vt 0.4179382 0.4732946
vt 0.4184427 0.4747072
vt 0.4179382 0.4732946
vt 0.4182706 0.4725929
vt 0.4184427 0.4747072
vt 0.4182706 0.4725929
vt 0.4189093 0.4721513
vt 0.4184427 0.4747072
vt 0.4189093 0.4721513
vt 0.4196832 0.4720883
vt 0.4184427 0.4747072
vt 0.4196832 0.4720883
vt 0.4203849 0.4724208
vt 0.4184427 0.4747072
vt 0.4203849 0.4724208
vt 0.4208264 0.4730594
vt 0.4184427 0.4747072
vt 0.4208264 0.4730594
vt 0.4208894 0.4738334
vt 0.4184427 0.4747072
vt 0.4208894 0.4738334
vt 0.420557 0.4745351
vt 0.4184427 0.4747072
vt 0.420557 0.4745351
vt 0.4199183 0.4749766
vt 0.4184427 0.4747072
vt 0.4199183 0.4749766
vt 0.4191444 0.4750396
o group285045155
g mesh285045155
usemtl mat9
f 3/3/1 2/2/1 1/1/1
f 4/6/2 3/5/2 1/4/2
f 7/9/3 6/8/3 5/7/3
f 8/12/4 7/11/4 5/10/4
f 8/15/5 5/14/5 1/13/5
f 2/18/6 8/17/6 1/16/6
f 7/21/7 3/20/7 4/19/7
f 6/24/8 7/23/8 4/22/8
f 6/27/9 4/26/9 1/25/9
f 5/30/10 6/29/10 1/28/10
f 7/33/11 8/32/11 2/31/11
f 3/36/12 7/35/12 2/34/12
o group2142368393
g mesh2142368393
usemtl mat21
f 11/39/13 10/38/13 9/37/13
f 12/42/14 11/41/14 9/40/14
f 14/45/15 13/44/15 10/43/15
f 11/48/16 14/47/16 10/46/16
f 16/51/17 15/50/17 13/49/17
f 14/54/18 16/53/18 13/52/18
f 18/57/19 17/56/19 15/55/19
f 16/60/20 18/59/20 15/58/20
f 20/63/21 19/62/21 17/61/21
f 18/66/22 20/65/22 17/64/22
f 22/69/23 21/68/23 19/67/23
f 20/72/24 22/71/24 19/70/24
f 24/75/25 23/74/25 21/73/25
f 22/78/26 24/77/26 21/76/26
f 26/81/27 25/80/27 23/79/27
f 24/84/28 26/83/28 23/82/28
f 28/87/29 27/86/29 25/85/29
f 26/90/30 28/89/30 25/88/30
f 30/93/31 29/92/31 27/91/31
f 28/96/32 30/95/32 27/94/32
f 32/99/33 31/98/33 29/97/33
f 30/102/34 32/101/34 29/100/34
f 12/105/35 9/104/35 31/103/35
f 32/108/36 12/107/36 31/106/36
f 29/111/37 31/110/37 9/109/37
f 27/114/38 29/113/38 9/112/38
f 25/117/39 27/116/39 9/115/39
f 23/120/40 25/119/40 9/118/40
f 21/123/41 23/122/41 9/121/41
f 19/126/42 21/125/42 9/124/42
f 17/129/43 19/128/43 9/127/43
f 15/132/44 17/131/44 9/130/44
f 13/135/45 15/134/45 9/133/45
f 10/138/46 13/137/46 9/136/46
f 11/141/47 12/140/47 32/139/47
f 14/144/48 11/143/48 32/142/48
f 16/147/49 14/146/49 32/145/49
f 18/150/50 16/149/50 32/148/50
f 20/153/51 18/152/51 32/151/51
f 22/156/52 20/155/52 32/154/52
f 24/159/53 22/158/53 32/157/53
f 26/162/54 24/161/54 32/160/54
f 28/165/55 26/164/55 32/163/55
f 30/168/56 28/167/56 32/166/56
o group2133455549
g mesh2133455549
usemtl mat21
f 35/171/57 34/170/57 33/169/57
f 36/174/58 35/173/58 33/172/58
f 38/177/59 37/176/59 34/175/59
f 35/180/60 38/179/60 34/178/60
f 40/183/61 39/182/61 37/181/61
f 38/186/62 40/185/62 37/184/62
f 42/189/63 41/188/63 39/187/63
f 40/192/64 42/191/64 39/190/64
f 44/195/65 43/194/65 41/193/65
f 42/198/66 44/197/66 41/196/66
f 46/201/67 45/200/67 43/199/67
f 44/204/68 46/203/68 43/202/68
f 48/207/69 47/206/69 45/205/69
f 46/210/70 48/209/70 45/208/70
f 50/213/71 49/212/71 47/211/71
f 48/216/72 50/215/72 47/214/72
f 52/219/73 51/218/73 49/217/73
f 50/222/74 52/221/74 49/220/74
f 54/225/75 53/224/75 51/223/75
f 52/228/76 54/227/76 51/226/76
f 56/231/77 55/230/77 53/229/77
f 54/234/78 56/233/78 53/232/78
f 36/237/79 33/236/79 55/235/79
f 56/240/80 36/239/80 55/238/80
f 53/243/81 55/242/81 33/241/81
f 51/246/82 53/245/82 33/244/82
f 49/249/83 51/248/83 33/247/83
f 47/252/84 49/251/84 33/250/84
f 45/255/85 47/254/85 33/253/85
f 43/258/86 45/257/86 33/256/86
f 41/261/87 43/260/87 33/259/87
f 39/264/88 41/263/88 33/262/88
f 37/267/89 39/266/89 33/265/89
f 34/270/90 37/269/90 33/268/90
f 35/273/91 36/272/91 56/271/91
f 38/276/92 35/275/92 56/274/92
f 40/279/93 38/278/93 56/277/93
f 42/282/94 40/281/94 56/280/94
f 44/285/95 42/284/95 56/283/95
f 46/288/96 44/287/96 56/286/96
f 48/291/97 46/290/97 56/289/97
f 50/294/98 48/293/98 56/292/98
f 52/297/99 50/296/99 56/295/99
f 54/300/100 52/299/100 56/298/100
o group2123501540
g mesh2123501540
usemtl mat17
f 59/303/101 58/302/101 57/301/101
f 60/306/102 59/305/102 57/304/102
f 62/309/103 61/308/103 58/307/103
f 59/312/104 62/311/104 58/310/104
f 64/315/105 63/314/105 61/313/105
f 62/318/106 64/317/106 61/316/106
f 66/321/107 65/320/107 63/319/107
f 64/324/108 66/323/108 63/322/108
f 68/327/109 67/326/109 65/325/109
f 66/330/110 68/329/110 65/328/110
f 70/333/111 69/332/111 67/331/111
f 68/336/112 70/335/112 67/334/112
f 72/339/113 71/338/113 69/337/113
f 70/342/114 72/341/114 69/340/114
f 74/345/115 73/344/115 71/343/115
f 72/348/116 74/347/116 71/346/116
f 76/351/117 75/350/117 73/349/117
f 74/354/118 76/353/118 73/352/118
f 78/357/119 77/356/119 75/355/119
f 76/360/120 78/359/120 75/358/120
f 80/363/121 79/362/121 77/361/121
f 78/366/122 80/365/122 77/364/122
f 60/369/123 57/368/123 79/367/123
f 80/372/124 60/371/124 79/370/124
f 77/375/125 79/374/125 57/373/125
f 75/378/126 77/377/126 57/376/126
f 73/381/127 75/380/127 57/379/127
f 71/384/128 73/383/128 57/382/128
f 69/387/129 71/386/129 57/385/129
f 67/390/130 69/389/130 57/388/130
f 65/393/131 67/392/131 57/391/131
f 63/396/132 65/395/132 57/394/132
f 61/399/133 63/398/133 57/397/133
f 58/402/134 61/401/134 57/400/134
f 59/405/135 60/404/135 80/403/135
f 62/408/136 59/407/136 80/406/136
f 64/411/137 62/410/137 80/409/137
f 66/414/138 64/413/138 80/412/138
f 68/417/139 66/416/139 80/415/139
f 70/420/140 68/419/140 80/418/140
f 72/423/141 70/422/141 80/421/141
f 74/426/142 72/425/142 80/424/142
f 76/429/143 74/428/143 80/427/143
f 78/432/144 76/431/144 80/430/144
